<svg width="94" height="61" viewBox="0 0 94 61" fill="none" xmlns="http://www.w3.org/2000/svg">
<g filter="url(#filter0_d_3_76)">
<rect x="4" width="86" height="53" rx="26.5" fill="#EBCC71"/>
<rect x="4.75" y="0.75" width="84.5" height="51.5" rx="25.75" stroke="black" stroke-width="1.5"/>
</g>
<g filter="url(#filter1_d_3_76)">
<path d="M47.4968 40.6392C45.2127 40.6392 43.244 40.098 41.5906 39.0156C39.9371 37.9247 38.663 36.3608 37.7681 34.3239C36.8732 32.2784 36.43 29.8196 36.4386 26.9474C36.4471 24.0753 36.8945 21.6378 37.7809 19.6349C38.6758 17.6236 39.9457 16.0937 41.5906 15.0455C43.244 13.9886 45.2127 13.4602 47.4968 13.4602C49.7809 13.4602 51.7496 13.9886 53.4031 15.0455C55.065 16.0937 56.3434 17.6236 57.2383 19.6349C58.1332 21.6463 58.5763 24.0838 58.5678 26.9474C58.5678 29.8281 58.1204 32.2912 57.2255 34.3366C56.3306 36.3821 55.0565 37.946 53.4031 39.0284C51.7582 40.1023 49.7894 40.6392 47.4968 40.6392ZM47.4968 35.4616C48.8604 35.4616 49.9641 34.767 50.8079 33.3778C51.6516 31.9801 52.0692 29.8366 52.0607 26.9474C52.0607 25.0554 51.869 23.4957 51.4854 22.2685C51.1019 21.0327 50.5692 20.1122 49.8874 19.5071C49.2056 18.902 48.4087 18.5994 47.4968 18.5994C46.1417 18.5994 45.0465 19.2855 44.2113 20.6577C43.3761 22.0213 42.9542 24.1179 42.9457 26.9474C42.9371 28.8651 43.1204 30.4545 43.4954 31.7159C43.8789 32.9773 44.4158 33.919 45.1062 34.5412C45.7965 35.1548 46.5934 35.4616 47.4968 35.4616Z" fill="white"/>
<path d="M41.5906 39.0156L41.0398 39.8503L41.0428 39.8523L41.5906 39.0156ZM37.7681 34.3239L36.852 34.7247L36.8526 34.7261L37.7681 34.3239ZM36.4386 26.9474L35.4386 26.9445L36.4386 26.9474ZM37.7809 19.6349L36.8672 19.2284L36.8664 19.2302L37.7809 19.6349ZM41.5906 15.0455L42.128 15.8888L42.1291 15.888L41.5906 15.0455ZM53.4031 15.0455L52.8645 15.8881L52.8696 15.8913L53.4031 15.0455ZM57.2383 19.6349L58.1519 19.2284L57.2383 19.6349ZM58.5678 26.9474L57.5678 26.9445V26.9474H58.5678ZM57.2255 34.3366L56.3093 33.9358L57.2255 34.3366ZM53.4031 39.0284L53.9497 39.8658L53.9508 39.8651L53.4031 39.0284ZM50.8079 33.3778L51.6626 33.897L51.664 33.8946L50.8079 33.3778ZM52.0607 26.9474H51.0607L51.0607 26.9504L52.0607 26.9474ZM51.4854 22.2685L50.5304 22.5649L50.531 22.5667L51.4854 22.2685ZM49.8874 19.5071L50.5512 18.7592H50.5512L49.8874 19.5071ZM44.2113 20.6577L45.0641 21.18L45.0655 21.1776L44.2113 20.6577ZM42.9457 26.9474L43.9457 26.9519L43.9457 26.9505L42.9457 26.9474ZM43.4954 31.7159L42.5368 32.0009L42.5386 32.0068L43.4954 31.7159ZM45.1062 34.5412L44.4367 35.284L44.4418 35.2886L45.1062 34.5412ZM47.4968 39.6392C45.3762 39.6392 43.6047 39.1389 42.1383 38.179L41.0428 39.8523C42.8832 41.0571 45.0492 41.6392 47.4968 41.6392V39.6392ZM42.1413 38.1809C40.6678 37.2088 39.5109 35.8047 38.6837 33.9216L36.8526 34.7261C37.8151 36.9169 39.2064 38.6407 41.0398 39.8503L42.1413 38.1809ZM38.6843 33.923C37.8586 32.0358 37.4303 29.7218 37.4386 26.9504L35.4386 26.9445C35.4297 29.9174 35.8879 32.521 36.852 34.7247L38.6843 33.923ZM37.4386 26.9504C37.4468 24.1755 37.8795 21.8831 38.6953 20.0396L36.8664 19.2302C35.9095 21.3925 35.4474 23.975 35.4386 26.9445L37.4386 26.9504ZM38.6945 20.0414C39.5202 18.1856 40.6694 16.8183 42.128 15.8888L41.0531 14.2022C39.222 15.3692 37.8313 17.0615 36.8672 19.2284L38.6945 20.0414ZM42.1291 15.888C43.5968 14.95 45.3717 14.4602 47.4968 14.4602V12.4602C45.0538 12.4602 42.8912 13.0273 41.052 14.2029L42.1291 15.888ZM47.4968 14.4602C49.622 14.4602 51.3968 14.95 52.8645 15.888L53.9416 14.2029C52.1025 13.0273 49.9398 12.4602 47.4968 12.4602V14.4602ZM52.8696 15.8913C54.3444 16.8215 55.5002 18.1883 56.3246 20.0414L58.1519 19.2284C57.1866 17.0588 55.7856 15.366 53.9366 14.1997L52.8696 15.8913ZM56.3246 20.0414C57.1477 21.8914 57.5761 24.1813 57.5678 26.9445L59.5678 26.9504C59.5766 23.9863 59.1186 21.4012 58.1519 19.2284L56.3246 20.0414ZM57.5678 26.9474C57.5678 29.7286 57.1354 32.0477 56.3093 33.9358L58.1417 34.7375C59.1054 32.5346 59.5678 29.9277 59.5678 26.9474H57.5678ZM56.3093 33.9358C55.4819 35.8271 54.3257 37.2292 52.8553 38.1917L53.9508 39.8651C55.7872 38.6629 57.1793 36.9371 58.1417 34.7375L56.3093 33.9358ZM52.8564 38.1911C51.3998 39.142 49.6284 39.6392 47.4968 39.6392V41.6392C49.9504 41.6392 52.1166 41.0625 53.9497 39.8658L52.8564 38.1911ZM47.4968 36.4616C49.2818 36.4616 50.6783 35.5176 51.6626 33.897L49.9532 32.8587C49.25 34.0165 48.4391 34.4616 47.4968 34.4616V36.4616ZM51.664 33.8946C52.6502 32.2609 53.0694 29.8945 53.0607 26.9445L51.0607 26.9504C51.0691 29.7788 50.6531 31.6993 49.9518 32.861L51.664 33.8946ZM53.0607 26.9474C53.0607 24.9972 52.8642 23.3279 52.4399 21.9702L50.531 22.5667C50.8737 23.6636 51.0607 25.1136 51.0607 26.9474H53.0607ZM52.4405 21.9721C52.0244 20.6314 51.4152 19.5259 50.5512 18.7592L49.2236 20.255C49.7233 20.6985 50.1794 21.434 50.5304 22.5649L52.4405 21.9721ZM50.5512 18.7592C49.6863 17.9916 48.6533 17.5994 47.4968 17.5994V19.5994C48.1642 19.5994 48.7249 19.8124 49.2236 20.255L50.5512 18.7592ZM47.4968 17.5994C45.7229 17.5994 44.3343 18.5323 43.3571 20.1377L45.0655 21.1776C45.7587 20.0387 46.5604 19.5994 47.4968 19.5994V17.5994ZM43.3585 20.1354C42.3792 21.7343 41.9544 24.054 41.9457 26.9444L43.9457 26.9505C43.954 24.1818 44.3729 22.3083 45.064 21.18L43.3585 20.1354ZM41.9457 26.943C41.9369 28.9181 42.1243 30.6134 42.5368 32.0009L44.4539 31.4309C44.1164 30.2957 43.9374 28.812 43.9457 26.9519L41.9457 26.943ZM42.5386 32.0068C42.954 33.373 43.5662 34.4995 44.4367 35.284L45.7757 33.7984C45.2655 33.3386 44.8038 32.5815 44.4521 31.425L42.5386 32.0068ZM44.4418 35.2886C45.3107 36.0609 46.3425 36.4616 47.4968 36.4616V34.4616C46.8443 34.4616 46.2823 34.2487 45.7705 33.7938L44.4418 35.2886Z" fill="black"/>
</g>
<defs>
<filter id="filter0_d_3_76" x="0" y="0" width="94" height="61" filterUnits="userSpaceOnUse" color-interpolation-filters="sRGB">
<feFlood flood-opacity="0" result="BackgroundImageFix"/>
<feColorMatrix in="SourceAlpha" type="matrix" values="0 0 0 0 0 0 0 0 0 0 0 0 0 0 0 0 0 0 127 0" result="hardAlpha"/>
<feOffset dy="4"/>
<feGaussianBlur stdDeviation="2"/>
<feComposite in2="hardAlpha" operator="out"/>
<feColorMatrix type="matrix" values="0 0 0 0 0 0 0 0 0 0 0 0 0 0 0 0 0 0 0.25 0"/>
<feBlend mode="normal" in2="BackgroundImageFix" result="effect1_dropShadow_3_76"/>
<feBlend mode="normal" in="SourceGraphic" in2="effect1_dropShadow_3_76" result="shape"/>
</filter>
<filter id="filter1_d_3_76" x="32.4258" y="13.4602" width="30.1548" height="35.179" filterUnits="userSpaceOnUse" color-interpolation-filters="sRGB">
<feFlood flood-opacity="0" result="BackgroundImageFix"/>
<feColorMatrix in="SourceAlpha" type="matrix" values="0 0 0 0 0 0 0 0 0 0 0 0 0 0 0 0 0 0 127 0" result="hardAlpha"/>
<feOffset dy="4"/>
<feGaussianBlur stdDeviation="2"/>
<feComposite in2="hardAlpha" operator="out"/>
<feColorMatrix type="matrix" values="0 0 0 0 0 0 0 0 0 0 0 0 0 0 0 0 0 0 0.25 0"/>
<feBlend mode="normal" in2="BackgroundImageFix" result="effect1_dropShadow_3_76"/>
<feBlend mode="normal" in="SourceGraphic" in2="effect1_dropShadow_3_76" result="shape"/>
</filter>
</defs>
</svg>
