<svg width="94" height="61" viewBox="0 0 94 61" fill="none" xmlns="http://www.w3.org/2000/svg">
<g filter="url(#filter0_d_3_75)">
<rect x="4" width="86" height="53" rx="26.5" fill="#EBCC71"/>
<rect x="4.75" y="0.75" width="84.5" height="51.5" rx="25.75" stroke="black" stroke-width="1.5"/>
</g>
<g filter="url(#filter1_d_3_75)">
<path d="M52.5897 13.8182V40H46.2743V19.7244H46.1209L40.2658 23.304V17.8324L46.7218 13.8182H52.5897Z" fill="white"/>
<path d="M52.5897 13.8182H53.5897C53.5897 13.2659 53.142 12.8182 52.5897 12.8182V13.8182ZM52.5897 40V41C53.142 41 53.5897 40.5523 53.5897 40H52.5897ZM46.2743 40H45.2743C45.2743 40.5523 45.722 41 46.2743 41V40ZM46.2743 19.7244H47.2743C47.2743 19.1721 46.8266 18.7244 46.2743 18.7244V19.7244ZM46.1209 19.7244V18.7244C45.9369 18.7244 45.7564 18.7752 45.5993 18.8712L46.1209 19.7244ZM40.2658 23.304H39.2658C39.2658 23.6657 39.4612 23.9993 39.7767 24.1762C40.0923 24.3531 40.4788 24.3459 40.7874 24.1572L40.2658 23.304ZM40.2658 17.8324L39.7378 16.9832C39.4443 17.1657 39.2658 17.4868 39.2658 17.8324H40.2658ZM46.7218 13.8182V12.8182C46.5351 12.8182 46.3522 12.8704 46.1937 12.969L46.7218 13.8182ZM51.5897 13.8182V40H53.5897V13.8182H51.5897ZM52.5897 39H46.2743V41H52.5897V39ZM47.2743 40V19.7244H45.2743V40H47.2743ZM46.2743 18.7244H46.1209V20.7244H46.2743V18.7244ZM45.5993 18.8712L39.7442 22.4508L40.7874 24.1572L46.6425 20.5776L45.5993 18.8712ZM41.2658 23.304V17.8324H39.2658V23.304H41.2658ZM40.7938 18.6816L47.2498 14.6674L46.1937 12.969L39.7378 16.9832L40.7938 18.6816ZM46.7218 14.8182H52.5897V12.8182H46.7218V14.8182Z" fill="black"/>
</g>
<defs>
<filter id="filter0_d_3_75" x="0" y="0" width="94" height="61" filterUnits="userSpaceOnUse" color-interpolation-filters="sRGB">
<feFlood flood-opacity="0" result="BackgroundImageFix"/>
<feColorMatrix in="SourceAlpha" type="matrix" values="0 0 0 0 0 0 0 0 0 0 0 0 0 0 0 0 0 0 127 0" result="hardAlpha"/>
<feOffset dy="4"/>
<feGaussianBlur stdDeviation="2"/>
<feComposite in2="hardAlpha" operator="out"/>
<feColorMatrix type="matrix" values="0 0 0 0 0 0 0 0 0 0 0 0 0 0 0 0 0 0 0.25 0"/>
<feBlend mode="normal" in2="BackgroundImageFix" result="effect1_dropShadow_3_75"/>
<feBlend mode="normal" in="SourceGraphic" in2="effect1_dropShadow_3_75" result="shape"/>
</filter>
<filter id="filter1_d_3_75" x="36.2658" y="13.8182" width="20.3239" height="34.1818" filterUnits="userSpaceOnUse" color-interpolation-filters="sRGB">
<feFlood flood-opacity="0" result="BackgroundImageFix"/>
<feColorMatrix in="SourceAlpha" type="matrix" values="0 0 0 0 0 0 0 0 0 0 0 0 0 0 0 0 0 0 127 0" result="hardAlpha"/>
<feOffset dy="4"/>
<feGaussianBlur stdDeviation="2"/>
<feComposite in2="hardAlpha" operator="out"/>
<feColorMatrix type="matrix" values="0 0 0 0 0 0 0 0 0 0 0 0 0 0 0 0 0 0 0.25 0"/>
<feBlend mode="normal" in2="BackgroundImageFix" result="effect1_dropShadow_3_75"/>
<feBlend mode="normal" in="SourceGraphic" in2="effect1_dropShadow_3_75" result="shape"/>
</filter>
</defs>
</svg>
