<svg width="94" height="61" viewBox="0 0 94 61" fill="none" xmlns="http://www.w3.org/2000/svg">
<g filter="url(#filter0_d_3_79)">
<rect x="4" width="86" height="53" rx="26.5" fill="#EBCC71"/>
<rect x="4.75" y="0.75" width="84.5" height="51.5" rx="25.75" stroke="black" stroke-width="1.5"/>
</g>
<g filter="url(#filter1_d_3_79)">
<path d="M37.9519 40V35.4489L47.5016 27.0881C48.2175 26.4403 48.8269 25.848 49.3297 25.3111C49.8326 24.7656 50.2161 24.2202 50.4803 23.6747C50.7445 23.1207 50.8766 22.5199 50.8766 21.8722C50.8766 21.1477 50.7189 20.5298 50.4036 20.0185C50.0882 19.4986 49.6536 19.098 49.0996 18.8168C48.5456 18.5355 47.9107 18.3949 47.1948 18.3949C46.4703 18.3949 45.8354 18.544 45.29 18.8423C44.7445 19.1321 44.3184 19.554 44.0115 20.108C43.7132 20.6619 43.5641 21.3352 43.5641 22.1278H37.5684C37.5684 20.3466 37.9689 18.8082 38.7701 17.5128C39.5712 16.2173 40.6962 15.2202 42.1451 14.5213C43.6025 13.8139 45.2942 13.4602 47.2203 13.4602C49.2061 13.4602 50.932 13.7926 52.3979 14.4574C53.8638 15.1222 54.9973 16.0511 55.7985 17.2443C56.6081 18.429 57.013 19.8054 57.013 21.3736C57.013 22.3707 56.8127 23.3594 56.4121 24.3395C56.0115 25.3196 55.2914 26.402 54.2516 27.5866C53.2203 28.7713 51.7544 30.1903 49.8539 31.8438L46.7218 34.733V34.8991H57.3326V40H37.9519Z" fill="white"/>
<path d="M37.9519 40H36.9519C36.9519 40.5523 37.3996 41 37.9519 41V40ZM37.9519 35.4489L37.2932 34.6965C37.0763 34.8864 36.9519 35.1606 36.9519 35.4489H37.9519ZM47.5016 27.0881L48.1603 27.8405C48.1644 27.8369 48.1685 27.8333 48.1725 27.8296L47.5016 27.0881ZM49.3297 25.3111L50.0596 25.9947L50.065 25.9889L49.3297 25.3111ZM50.4803 23.6747L51.3803 24.1107L51.3829 24.1052L50.4803 23.6747ZM50.4036 20.0185L49.5486 20.5371L49.5524 20.5434L50.4036 20.0185ZM49.0996 18.8168L48.6469 19.7084L49.0996 18.8168ZM45.29 18.8423L45.7591 19.7255L45.7698 19.7197L45.29 18.8423ZM44.0115 20.108L43.1367 19.6234L43.1311 19.6339L44.0115 20.108ZM43.5641 22.1278V23.1278C44.1164 23.1278 44.5641 22.6801 44.5641 22.1278H43.5641ZM37.5684 22.1278H36.5684C36.5684 22.6801 37.0161 23.1278 37.5684 23.1278V22.1278ZM38.7701 17.5128L39.6206 18.0388L38.7701 17.5128ZM42.1451 14.5213L42.5795 15.422L42.5817 15.4209L42.1451 14.5213ZM52.3979 14.4574L52.8109 13.5467L52.3979 14.4574ZM55.7985 17.2443L54.9682 17.8018L54.9729 17.8086L55.7985 17.2443ZM56.4121 24.3395L55.4864 23.9612L56.4121 24.3395ZM54.2516 27.5866L53.5 26.927L53.4973 26.9301L54.2516 27.5866ZM49.8539 31.8438L49.1975 31.0893C49.1902 31.0957 49.183 31.1021 49.1758 31.1087L49.8539 31.8438ZM46.7218 34.733L46.0437 33.9979C45.8385 34.1872 45.7218 34.4537 45.7218 34.733H46.7218ZM46.7218 34.8991H45.7218C45.7218 35.4514 46.1695 35.8991 46.7218 35.8991V34.8991ZM57.3326 34.8991H58.3326C58.3326 34.3469 57.8848 33.8991 57.3326 33.8991V34.8991ZM57.3326 40V41C57.8848 41 58.3326 40.5523 58.3326 40H57.3326ZM38.9519 40V35.4489H36.9519V40H38.9519ZM38.6106 36.2013L48.1603 27.8405L46.8429 26.3357L37.2932 34.6965L38.6106 36.2013ZM48.1725 27.8296C48.903 27.1687 49.5332 26.5568 50.0596 25.9946L48.5998 24.6275C48.1206 25.1392 47.532 25.712 46.8307 26.3465L48.1725 27.8296ZM50.065 25.9889C50.62 25.3868 51.065 24.7615 51.3803 24.1106L49.5803 23.2388C49.3672 23.6788 49.0451 24.1444 48.5945 24.6333L50.065 25.9889ZM51.3829 24.1052C51.7148 23.4093 51.8766 22.6604 51.8766 21.8722H49.8766C49.8766 22.3794 49.7742 22.8321 49.5777 23.2442L51.3829 24.1052ZM51.8766 21.8722C51.8766 21.0007 51.6857 20.1925 51.2548 19.4936L49.5524 20.5434C49.7521 20.8672 49.8766 21.2947 49.8766 21.8722H51.8766ZM51.2586 19.4999C50.8444 18.8169 50.2687 18.2888 49.5523 17.9251L48.6469 19.7084C49.0384 19.9072 49.3321 20.1802 49.5486 20.5371L51.2586 19.4999ZM49.5523 17.9251C48.8381 17.5625 48.044 17.3949 47.1948 17.3949V19.3949C47.7774 19.3949 48.2532 19.5085 48.6469 19.7084L49.5523 17.9251ZM47.1948 17.3949C46.3305 17.3949 45.5254 17.5738 44.8101 17.965L45.7698 19.7197C46.1454 19.5142 46.6102 19.3949 47.1948 19.3949V17.3949ZM44.8208 17.9592C44.0999 18.3422 43.5348 18.9047 43.1367 19.6235L44.8863 20.5925C45.1019 20.2033 45.3891 19.922 45.7591 19.7254L44.8208 17.9592ZM43.1311 19.6339C42.7365 20.3666 42.5641 21.2119 42.5641 22.1278H44.5641C44.5641 21.4586 44.69 20.9573 44.892 20.5821L43.1311 19.6339ZM43.5641 21.1278H37.5684V23.1278H43.5641V21.1278ZM38.5684 22.1278C38.5684 20.5004 38.9327 19.151 39.6206 18.0388L37.9196 16.9868C37.0051 18.4654 36.5684 20.1927 36.5684 22.1278H38.5684ZM39.6206 18.0388C40.3158 16.9145 41.2921 16.043 42.5795 15.422L41.7106 13.6206C40.1003 14.3974 38.8266 15.5201 37.9196 16.9868L39.6206 18.0388ZM42.5817 15.4209C43.8797 14.7909 45.4172 14.4602 47.2203 14.4602V12.4602C45.1713 12.4602 43.3252 12.8369 41.7084 13.6217L42.5817 15.4209ZM47.2203 14.4602C49.0961 14.4602 50.6754 14.7742 51.9849 15.3681L52.8109 13.5467C51.1886 12.811 49.3161 12.4602 47.2203 12.4602V14.4602ZM51.9849 15.3681C53.3025 15.9656 54.2827 16.7808 54.9683 17.8018L56.6287 16.6869C55.7119 15.3215 54.4251 14.2787 52.8109 13.5467L51.9849 15.3681ZM54.9729 17.8086C55.6584 18.8115 56.013 19.9872 56.013 21.3736H58.013C58.013 19.6236 57.5579 18.0464 56.6241 16.6801L54.9729 17.8086ZM56.013 21.3736C56.013 22.2331 55.841 23.0936 55.4864 23.9612L57.3378 24.7178C57.7844 23.6251 58.013 22.5084 58.013 21.3736H56.013ZM55.4864 23.9612C55.1431 24.8013 54.4988 25.7891 53.5 26.927L55.0032 28.2463C56.084 27.0149 56.88 25.8379 57.3378 24.7178L55.4864 23.9612ZM53.4973 26.9301C52.5089 28.0655 51.0813 29.4505 49.1975 31.0893L50.5102 32.5982C52.4275 30.9302 53.9318 29.4771 55.0059 28.2432L53.4973 26.9301ZM49.1758 31.1087L46.0437 33.9979L47.3998 35.468L50.5319 32.5788L49.1758 31.1087ZM45.7218 34.733V34.8991H47.7218V34.733H45.7218ZM46.7218 35.8991H57.3326V33.8991H46.7218V35.8991ZM56.3326 34.8991V40H58.3326V34.8991H56.3326ZM57.3326 39H37.9519V41H57.3326V39Z" fill="black"/>
</g>
<defs>
<filter id="filter0_d_3_79" x="0" y="0" width="94" height="61" filterUnits="userSpaceOnUse" color-interpolation-filters="sRGB">
<feFlood flood-opacity="0" result="BackgroundImageFix"/>
<feColorMatrix in="SourceAlpha" type="matrix" values="0 0 0 0 0 0 0 0 0 0 0 0 0 0 0 0 0 0 127 0" result="hardAlpha"/>
<feOffset dy="4"/>
<feGaussianBlur stdDeviation="2"/>
<feComposite in2="hardAlpha" operator="out"/>
<feColorMatrix type="matrix" values="0 0 0 0 0 0 0 0 0 0 0 0 0 0 0 0 0 0 0.25 0"/>
<feBlend mode="normal" in2="BackgroundImageFix" result="effect1_dropShadow_3_79"/>
<feBlend mode="normal" in="SourceGraphic" in2="effect1_dropShadow_3_79" result="shape"/>
</filter>
<filter id="filter1_d_3_79" x="33.5684" y="13.4602" width="27.7642" height="34.5398" filterUnits="userSpaceOnUse" color-interpolation-filters="sRGB">
<feFlood flood-opacity="0" result="BackgroundImageFix"/>
<feColorMatrix in="SourceAlpha" type="matrix" values="0 0 0 0 0 0 0 0 0 0 0 0 0 0 0 0 0 0 127 0" result="hardAlpha"/>
<feOffset dy="4"/>
<feGaussianBlur stdDeviation="2"/>
<feComposite in2="hardAlpha" operator="out"/>
<feColorMatrix type="matrix" values="0 0 0 0 0 0 0 0 0 0 0 0 0 0 0 0 0 0 0.25 0"/>
<feBlend mode="normal" in2="BackgroundImageFix" result="effect1_dropShadow_3_79"/>
<feBlend mode="normal" in="SourceGraphic" in2="effect1_dropShadow_3_79" result="shape"/>
</filter>
</defs>
</svg>
