<svg width="94" height="61" viewBox="0 0 94 61" fill="none" xmlns="http://www.w3.org/2000/svg">
<g filter="url(#filter0_d_3_83)">
<rect x="4" width="86" height="53" rx="26.5" fill="#EBCC71"/>
<rect x="4.75" y="0.75" width="84.5" height="51.5" rx="25.75" stroke="black" stroke-width="1.5"/>
</g>
<g filter="url(#filter1_d_3_83)">
<path d="M47.3833 40.358C45.389 40.358 43.6206 40.017 42.0779 39.3352C40.5439 38.6449 39.3336 37.6946 38.4473 36.4844C37.5609 35.2741 37.1092 33.8807 37.0922 32.304H43.4586C43.4842 32.875 43.6674 33.3821 44.0083 33.8253C44.3493 34.2599 44.8137 34.6009 45.4018 34.848C45.9899 35.0952 46.6589 35.2188 47.4089 35.2188C48.1589 35.2188 48.8194 35.0866 49.3904 34.8224C49.97 34.5497 50.4217 34.179 50.7456 33.7102C51.0694 33.233 51.2271 32.6875 51.2186 32.0739C51.2271 31.4602 51.0524 30.9148 50.6944 30.4375C50.3365 29.9602 49.8294 29.5895 49.1731 29.3253C48.5254 29.0611 47.7583 28.929 46.872 28.929H44.3279V24.429H46.872C47.6476 24.429 48.3294 24.3011 48.9174 24.0455C49.514 23.7898 49.9785 23.4318 50.3109 22.9716C50.6433 22.5028 50.8052 21.9659 50.7967 21.3608C50.8052 20.7727 50.6646 20.2571 50.3748 19.8139C50.0936 19.3622 49.6973 19.0128 49.1859 18.7656C48.6831 18.5185 48.0993 18.3949 47.4345 18.3949C46.7356 18.3949 46.1007 18.5185 45.5297 18.7656C44.9672 19.0128 44.5197 19.3622 44.1873 19.8139C43.8549 20.2656 43.6802 20.7898 43.6632 21.3864H37.6163C37.6333 19.8267 38.068 18.4545 38.9203 17.2699C39.7726 16.0767 40.9316 15.1435 42.3976 14.4702C43.872 13.7969 45.551 13.4602 47.4345 13.4602C49.3095 13.4602 50.9586 13.7884 52.3819 14.4446C53.8052 15.1009 54.9132 15.9957 55.7058 17.1293C56.4984 18.2543 56.8947 19.5284 56.8947 20.9517C56.9032 22.4261 56.4217 23.6406 55.4501 24.5952C54.487 25.5497 53.247 26.1378 51.7299 26.3594V26.5639C53.7583 26.8026 55.2882 27.4588 56.3194 28.5327C57.3592 29.6065 57.8748 30.9489 57.8663 32.5597C57.8663 34.0767 57.4189 35.4233 56.524 36.5994C55.6376 37.767 54.4018 38.6875 52.8166 39.3608C51.2399 40.0256 49.4288 40.358 47.3833 40.358Z" fill="white"/>
<path d="M42.0779 39.3352L41.6676 40.2472L41.6737 40.2499L42.0779 39.3352ZM38.4473 36.4844L37.6405 37.0752L38.4473 36.4844ZM37.0922 32.304V31.304C36.8251 31.304 36.5691 31.4108 36.3812 31.6007C36.1934 31.7906 36.0893 32.0477 36.0922 32.3148L37.0922 32.304ZM43.4586 32.304L44.4576 32.2592C44.4337 31.7249 43.9935 31.304 43.4586 31.304V32.304ZM44.0083 33.8253L43.2157 34.435L43.2215 34.4424L44.0083 33.8253ZM45.4018 34.848L45.0144 35.7699L45.4018 34.848ZM49.3904 34.8224L49.8104 35.73L49.8162 35.7273L49.3904 34.8224ZM50.7456 33.7102L51.5683 34.2787L51.573 34.2717L50.7456 33.7102ZM51.2186 32.0739L50.2187 32.06C50.2185 32.0692 50.2185 32.0785 50.2187 32.0877L51.2186 32.0739ZM50.6944 30.4375L49.8944 31.0375L50.6944 30.4375ZM49.1731 29.3253L48.7954 30.2512L48.7997 30.2529L49.1731 29.3253ZM44.3279 28.929H43.3279C43.3279 29.4813 43.7757 29.929 44.3279 29.929V28.929ZM44.3279 24.429V23.429C43.7757 23.429 43.3279 23.8767 43.3279 24.429H44.3279ZM48.9174 24.0455L48.5235 23.1263L48.5187 23.1284L48.9174 24.0455ZM50.3109 22.9716L51.1216 23.5571L51.1266 23.55L50.3109 22.9716ZM50.7967 21.3608L49.7968 21.3463C49.7967 21.3558 49.7967 21.3654 49.7968 21.3749L50.7967 21.3608ZM50.3748 19.8139L49.5259 20.3425C49.5298 20.3488 49.5338 20.355 49.5379 20.3612L50.3748 19.8139ZM49.1859 18.7656L48.7448 19.6631L48.7507 19.666L49.1859 18.7656ZM45.5297 18.7656L45.1324 17.8479L45.1274 17.8501L45.5297 18.7656ZM44.1873 19.8139L44.9928 20.4066H44.9928L44.1873 19.8139ZM43.6632 21.3864V22.3864C44.2043 22.3864 44.6473 21.9559 44.6628 21.4149L43.6632 21.3864ZM37.6163 21.3864L36.6164 21.3754C36.6134 21.6425 36.7175 21.8997 36.9053 22.0896C37.0932 22.2795 37.3492 22.3864 37.6163 22.3864V21.3864ZM38.9203 17.2699L39.732 17.8539L39.734 17.8511L38.9203 17.2699ZM42.3976 14.4702L41.9822 13.5605L41.9802 13.5614L42.3976 14.4702ZM52.3819 14.4446L51.9632 15.3527V15.3527L52.3819 14.4446ZM55.7058 17.1293L54.8863 17.7023L54.8883 17.7052L55.7058 17.1293ZM56.8947 20.9517H55.8947L55.8947 20.9575L56.8947 20.9517ZM55.4501 24.5952L54.7493 23.8818L54.7461 23.8849L55.4501 24.5952ZM51.7299 26.3594L51.5854 25.3699C51.0942 25.4416 50.7299 25.8629 50.7299 26.3594H51.7299ZM51.7299 26.5639H50.7299C50.7299 27.071 51.1095 27.4978 51.6131 27.5571L51.7299 26.5639ZM56.3194 28.5327L55.5981 29.2253L55.601 29.2283L56.3194 28.5327ZM57.8663 32.5597L56.8663 32.5544V32.5597H57.8663ZM56.524 36.5994L55.7281 35.9939L55.7275 35.9948L56.524 36.5994ZM52.8166 39.3608L53.2051 40.2822L53.2075 40.2812L52.8166 39.3608ZM47.3833 39.358C45.5032 39.358 43.8764 39.0368 42.4822 38.4206L41.6737 40.2499C43.3647 40.9973 45.2749 41.358 47.3833 41.358V39.358ZM42.4883 38.4233C41.0924 37.7951 40.0263 36.9479 39.254 35.8935L37.6405 37.0752C38.641 38.4413 39.9954 39.4946 41.6676 40.2472L42.4883 38.4233ZM39.254 35.8935C38.4976 34.8607 38.107 33.6724 38.0921 32.2932L36.0922 32.3148C36.1114 34.0889 36.6242 35.6876 37.6405 37.0752L39.254 35.8935ZM37.0922 33.304H43.4586V31.304H37.0922V33.304ZM42.4596 32.3487C42.4942 33.1199 42.7467 33.8253 43.2157 34.435L44.801 33.2156C44.5881 32.9389 44.4742 32.6301 44.4576 32.2592L42.4596 32.3487ZM43.2215 34.4424C43.6827 35.0305 44.2939 35.4671 45.0144 35.7699L45.7893 33.9261C45.3336 33.7346 45.0158 33.4894 44.7952 33.2081L43.2215 34.4424ZM45.0144 35.7699C45.7447 36.0768 46.5489 36.2188 47.4089 36.2188V34.2188C46.7689 34.2188 46.2351 34.1135 45.7893 33.9261L45.0144 35.7699ZM47.4089 36.2188C48.2765 36.2188 49.0849 36.0657 49.8104 35.73L48.9705 33.9149C48.554 34.1076 48.0414 34.2188 47.4089 34.2188V36.2188ZM49.8162 35.7273C50.5352 35.3889 51.1321 34.91 51.5683 34.2787L49.9228 33.1418C49.7113 33.448 49.4048 33.7105 48.9647 33.9176L49.8162 35.7273ZM51.573 34.2717C52.0195 33.6137 52.2297 32.8647 52.2185 32.06L50.2187 32.0877C50.2245 32.5103 50.1193 32.8522 49.9181 33.1487L51.573 34.2717ZM52.2185 32.0877C52.23 31.2598 51.9891 30.4971 51.4944 29.8375L49.8944 31.0375C50.1157 31.3325 50.2242 31.6606 50.2187 32.06L52.2185 32.0877ZM51.4944 29.8375C51.008 29.1889 50.3405 28.7173 49.5466 28.3976L48.7997 30.2529C49.3182 30.4617 49.6649 30.7315 49.8944 31.0375L51.4944 29.8375ZM49.5508 28.3993C48.7558 28.0751 47.8546 27.929 46.872 27.929V29.929C47.6621 29.929 48.295 30.0471 48.7954 30.2512L49.5508 28.3993ZM46.872 27.929H44.3279V29.929H46.872V27.929ZM45.3279 28.929V24.429H43.3279V28.929H45.3279ZM44.3279 25.429H46.872V23.429H44.3279V25.429ZM46.872 25.429C47.7566 25.429 48.5788 25.2831 49.3162 24.9625L48.5187 23.1284C48.0799 23.3192 47.5385 23.429 46.872 23.429V25.429ZM49.3114 24.9646C50.0502 24.648 50.6686 24.1843 51.1216 23.5571L49.5002 22.3861C49.2885 22.6793 48.9779 22.9316 48.5235 23.1263L49.3114 24.9646ZM51.1266 23.55C51.5884 22.8988 51.8079 22.1519 51.7966 21.3467L49.7968 21.3749C49.8025 21.78 49.6981 22.1069 49.4952 22.3932L51.1266 23.55ZM51.7966 21.3753C51.8077 20.6109 51.6226 19.8949 51.2118 19.2667L49.5379 20.3612C49.7066 20.6193 49.8028 20.9346 49.7968 21.3463L51.7966 21.3753ZM51.2237 19.2854C50.8357 18.6622 50.2907 18.1889 49.6211 17.8653L48.7507 19.666C49.1038 19.8366 49.3515 20.0623 49.5259 20.3425L51.2237 19.2854ZM49.627 17.8682C48.9636 17.5421 48.2239 17.3949 47.4345 17.3949V19.3949C47.9746 19.3949 48.4025 19.4948 48.7448 19.6631L49.627 17.8682ZM47.4345 17.3949C46.6158 17.3949 45.8434 17.5402 45.1324 17.8479L45.9269 19.6833C46.3579 19.4968 46.8554 19.3949 47.4345 19.3949V17.3949ZM45.1274 17.8501C44.4203 18.1608 43.8278 18.6152 43.3819 19.2212L44.9928 20.4066C45.2116 20.1092 45.514 19.8648 45.9319 19.6811L45.1274 17.8501ZM43.3819 19.2212C42.921 19.8476 42.686 20.5716 42.6636 21.3578L44.6628 21.4149C44.6744 21.008 44.7889 20.6836 44.9928 20.4066L43.3819 19.2212ZM43.6632 20.3864H37.6163V22.3864H43.6632V20.3864ZM38.6162 21.3973C38.6312 20.0285 39.0084 18.8597 39.732 17.8539L38.1085 16.6859C37.1276 18.0494 36.6355 19.6249 36.6164 21.3754L38.6162 21.3973ZM39.734 17.8511C40.475 16.8137 41.4911 15.9869 42.8149 15.3789L41.9802 13.5614C40.3721 14.3 39.0701 15.3397 38.1065 16.6886L39.734 17.8511ZM42.8129 15.3798C44.1375 14.775 45.6712 14.4602 47.4345 14.4602V12.4602C45.4307 12.4602 43.6065 12.8188 41.9822 13.5605L42.8129 15.3798ZM47.4345 14.4602C49.1929 14.4602 50.6944 14.7677 51.9632 15.3527L52.8006 13.5365C51.2228 12.809 49.4261 12.4602 47.4345 12.4602V14.4602ZM51.9632 15.3527C53.2474 15.9448 54.2082 16.7325 54.8863 17.7023L56.5253 16.5562C55.6182 15.2589 54.363 14.2569 52.8006 13.5365L51.9632 15.3527ZM54.8883 17.7052C55.5579 18.6556 55.8947 19.7271 55.8947 20.9517H57.8947C57.8947 19.3297 57.4389 17.8529 56.5233 16.5533L54.8883 17.7052ZM55.8947 20.9575C55.9018 22.1864 55.5111 23.1334 54.7493 23.8818L56.1509 25.3085C57.3323 24.1479 57.9046 22.6659 57.8947 20.9459L55.8947 20.9575ZM54.7461 23.8849C53.9544 24.6697 52.9198 25.175 51.5854 25.3699L51.8745 27.3489C53.5742 27.1006 55.0197 26.4298 56.1541 25.3054L54.7461 23.8849ZM50.7299 26.3594V26.5639H52.7299V26.3594H50.7299ZM51.6131 27.5571C53.4964 27.7786 54.7782 28.3715 55.5982 29.2253L57.0407 27.84C55.7981 26.5461 54.0203 25.8265 51.8468 25.5708L51.6131 27.5571ZM55.601 29.2283C56.4439 30.0988 56.8736 31.1827 56.8663 32.5544L58.8663 32.5649C58.8761 30.7151 58.2745 29.1142 57.0378 27.8371L55.601 29.2283ZM56.8663 32.5597C56.8663 33.8642 56.4868 34.9968 55.7281 35.9939L57.3198 37.205C58.3509 35.8498 58.8663 34.2892 58.8663 32.5597H56.8663ZM55.7275 35.9948C54.9636 37.0011 53.8787 37.8232 52.4257 38.4404L53.2075 40.2812C54.9249 39.5518 56.3116 38.533 57.3205 37.2041L55.7275 35.9948ZM52.4281 38.4393C50.9959 39.0432 49.3209 39.358 47.3833 39.358V41.358C49.5367 41.358 51.4839 41.0079 53.2051 40.2822L52.4281 38.4393Z" fill="black"/>
</g>
<defs>
<filter id="filter0_d_3_83" x="0" y="0" width="94" height="61" filterUnits="userSpaceOnUse" color-interpolation-filters="sRGB">
<feFlood flood-opacity="0" result="BackgroundImageFix"/>
<feColorMatrix in="SourceAlpha" type="matrix" values="0 0 0 0 0 0 0 0 0 0 0 0 0 0 0 0 0 0 127 0" result="hardAlpha"/>
<feOffset dy="4"/>
<feGaussianBlur stdDeviation="2"/>
<feComposite in2="hardAlpha" operator="out"/>
<feColorMatrix type="matrix" values="0 0 0 0 0 0 0 0 0 0 0 0 0 0 0 0 0 0 0.25 0"/>
<feBlend mode="normal" in2="BackgroundImageFix" result="effect1_dropShadow_3_83"/>
<feBlend mode="normal" in="SourceGraphic" in2="effect1_dropShadow_3_83" result="shape"/>
</filter>
<filter id="filter1_d_3_83" x="33.0921" y="13.4602" width="28.7869" height="34.8977" filterUnits="userSpaceOnUse" color-interpolation-filters="sRGB">
<feFlood flood-opacity="0" result="BackgroundImageFix"/>
<feColorMatrix in="SourceAlpha" type="matrix" values="0 0 0 0 0 0 0 0 0 0 0 0 0 0 0 0 0 0 127 0" result="hardAlpha"/>
<feOffset dy="4"/>
<feGaussianBlur stdDeviation="2"/>
<feComposite in2="hardAlpha" operator="out"/>
<feColorMatrix type="matrix" values="0 0 0 0 0 0 0 0 0 0 0 0 0 0 0 0 0 0 0.25 0"/>
<feBlend mode="normal" in2="BackgroundImageFix" result="effect1_dropShadow_3_83"/>
<feBlend mode="normal" in="SourceGraphic" in2="effect1_dropShadow_3_83" result="shape"/>
</filter>
</defs>
</svg>
