<svg width="94" height="61" viewBox="0 0 94 61" fill="none" xmlns="http://www.w3.org/2000/svg">
<g filter="url(#filter0_d_3_74)">
<rect x="4" width="86" height="53" rx="26.5" fill="#EBCC71"/>
<rect x="4.75" y="0.75" width="84.5" height="51.5" rx="25.75" stroke="black" stroke-width="1.5"/>
</g>
<g filter="url(#filter1_d_3_74)">
<path d="M36.7006 35.6534V30.7188L47.4265 13.8182H51.8114V20.517H49.2674L42.9904 30.4631V30.6676H58.5231V35.6534H36.7006ZM49.3441 40V34.1449L49.4719 31.9844V13.8182H55.391V40H49.3441Z" fill="white"/>
<path d="M36.7006 35.6534H35.7006C35.7006 36.2057 36.1484 36.6534 36.7006 36.6534V35.6534ZM36.7006 30.7188L35.8563 30.1829C35.7546 30.3431 35.7006 30.529 35.7006 30.7188H36.7006ZM47.4265 13.8182V12.8182C47.0842 12.8182 46.7656 12.9933 46.5822 13.2823L47.4265 13.8182ZM51.8114 13.8182H52.8114C52.8114 13.2659 52.3637 12.8182 51.8114 12.8182V13.8182ZM51.8114 20.517V21.517C52.3637 21.517 52.8114 21.0693 52.8114 20.517H51.8114ZM49.2674 20.517V19.517C48.9242 19.517 48.6049 19.6931 48.4217 19.9833L49.2674 20.517ZM42.9904 30.4631L42.1447 29.9294C42.0439 30.0891 41.9904 30.2742 41.9904 30.4631H42.9904ZM42.9904 30.6676H41.9904C41.9904 31.2199 42.4381 31.6676 42.9904 31.6676V30.6676ZM58.5231 30.6676H59.5231C59.5231 30.1153 59.0754 29.6676 58.5231 29.6676V30.6676ZM58.5231 35.6534V36.6534C59.0754 36.6534 59.5231 36.2057 59.5231 35.6534H58.5231ZM49.3441 40H48.3441C48.3441 40.5523 48.7918 41 49.3441 41V40ZM49.3441 34.1449L48.3459 34.0858C48.3447 34.1055 48.3441 34.1252 48.3441 34.1449H49.3441ZM49.4719 31.9844L50.4702 32.0434C50.4714 32.0238 50.4719 32.0041 50.4719 31.9844H49.4719ZM49.4719 13.8182V12.8182C48.9197 12.8182 48.4719 13.2659 48.4719 13.8182H49.4719ZM55.391 13.8182H56.391C56.391 13.2659 55.9433 12.8182 55.391 12.8182V13.8182ZM55.391 40V41C55.9433 41 56.391 40.5523 56.391 40H55.391ZM37.7006 35.6534V30.7188H35.7006V35.6534H37.7006ZM37.545 31.2546L48.2708 14.354L46.5822 13.2823L35.8563 30.1829L37.545 31.2546ZM47.4265 14.8182H51.8114V12.8182H47.4265V14.8182ZM50.8114 13.8182V20.517H52.8114V13.8182H50.8114ZM51.8114 19.517H49.2674V21.517H51.8114V19.517ZM48.4217 19.9833L42.1447 29.9294L43.8361 30.9968L50.1131 21.0508L48.4217 19.9833ZM41.9904 30.4631V30.6676H43.9904V30.4631H41.9904ZM42.9904 31.6676H58.5231V29.6676H42.9904V31.6676ZM57.5231 30.6676V35.6534H59.5231V30.6676H57.5231ZM58.5231 34.6534H36.7006V36.6534H58.5231V34.6534ZM50.3441 40V34.1449H48.3441V40H50.3441ZM50.3424 34.204L50.4702 32.0434L48.4737 31.9253L48.3459 34.0858L50.3424 34.204ZM50.4719 31.9844V13.8182H48.4719V31.9844H50.4719ZM49.4719 14.8182H55.391V12.8182H49.4719V14.8182ZM54.391 13.8182V40H56.391V13.8182H54.391ZM55.391 39H49.3441V41H55.391V39Z" fill="black"/>
</g>
<defs>
<filter id="filter0_d_3_74" x="0" y="0" width="94" height="61" filterUnits="userSpaceOnUse" color-interpolation-filters="sRGB">
<feFlood flood-opacity="0" result="BackgroundImageFix"/>
<feColorMatrix in="SourceAlpha" type="matrix" values="0 0 0 0 0 0 0 0 0 0 0 0 0 0 0 0 0 0 127 0" result="hardAlpha"/>
<feOffset dy="4"/>
<feGaussianBlur stdDeviation="2"/>
<feComposite in2="hardAlpha" operator="out"/>
<feColorMatrix type="matrix" values="0 0 0 0 0 0 0 0 0 0 0 0 0 0 0 0 0 0 0.25 0"/>
<feBlend mode="normal" in2="BackgroundImageFix" result="effect1_dropShadow_3_74"/>
<feBlend mode="normal" in="SourceGraphic" in2="effect1_dropShadow_3_74" result="shape"/>
</filter>
<filter id="filter1_d_3_74" x="32.7006" y="13.8182" width="29.8224" height="34.1818" filterUnits="userSpaceOnUse" color-interpolation-filters="sRGB">
<feFlood flood-opacity="0" result="BackgroundImageFix"/>
<feColorMatrix in="SourceAlpha" type="matrix" values="0 0 0 0 0 0 0 0 0 0 0 0 0 0 0 0 0 0 127 0" result="hardAlpha"/>
<feOffset dy="4"/>
<feGaussianBlur stdDeviation="2"/>
<feComposite in2="hardAlpha" operator="out"/>
<feColorMatrix type="matrix" values="0 0 0 0 0 0 0 0 0 0 0 0 0 0 0 0 0 0 0.25 0"/>
<feBlend mode="normal" in2="BackgroundImageFix" result="effect1_dropShadow_3_74"/>
<feBlend mode="normal" in="SourceGraphic" in2="effect1_dropShadow_3_74" result="shape"/>
</filter>
</defs>
</svg>
