<svg width="94" height="61" viewBox="0 0 94 61" fill="none" xmlns="http://www.w3.org/2000/svg">
<g filter="url(#filter0_d_3_78)">
<rect x="4" width="86" height="53" rx="26.5" fill="#EBCC71"/>
<rect x="4.75" y="0.75" width="84.5" height="51.5" rx="25.75" stroke="black" stroke-width="1.5"/>
</g>
<g filter="url(#filter1_d_3_78)">
<path d="M47.623 40.358C45.714 40.358 44.0179 40.0128 42.535 39.3224C41.052 38.6321 39.8801 37.6818 39.0194 36.4716C38.1671 35.2614 37.7239 33.8722 37.6898 32.304H43.8262C43.8773 33.267 44.2694 34.0426 45.0023 34.6307C45.7353 35.2102 46.6088 35.5 47.623 35.5C48.4157 35.5 49.1188 35.3253 49.7324 34.9759C50.3461 34.6264 50.8276 34.1364 51.177 33.5057C51.5265 32.8665 51.6969 32.1335 51.6884 31.3068C51.6969 30.4631 51.5222 29.7259 51.1642 29.0952C50.8148 28.4645 50.329 27.9744 49.7069 27.625C49.0932 27.267 48.3858 27.0881 47.5847 27.0881C46.8262 27.0795 46.106 27.2457 45.4242 27.5866C44.7509 27.9276 44.2395 28.392 43.8901 28.9801L38.3034 27.9318L39.4412 13.8182H56.2395V18.919H44.6444L44.0435 25.0938H44.1969C44.6316 24.3693 45.3304 23.7727 46.2935 23.304C47.2651 22.8267 48.3688 22.5881 49.6046 22.5881C51.1728 22.5881 52.5705 22.9545 53.7978 23.6875C55.0336 24.4119 56.0051 25.4176 56.7125 26.7045C57.4284 27.9915 57.7864 29.4659 57.7864 31.1278C57.7864 32.9261 57.3603 34.5199 56.508 35.9091C55.6642 37.2983 54.4796 38.3892 52.954 39.1818C51.437 39.9659 49.66 40.358 47.623 40.358Z" fill="white"/>
<path d="M42.535 39.3224L42.1129 40.229L42.535 39.3224ZM39.0194 36.4716L38.2017 37.0474L38.2045 37.0512L39.0194 36.4716ZM37.6898 32.304V31.304C37.4208 31.304 37.1632 31.4123 36.9751 31.6046C36.7869 31.7969 36.6842 32.0568 36.69 32.3257L37.6898 32.304ZM43.8262 32.304L44.8248 32.251C44.7966 31.72 44.3579 31.304 43.8262 31.304V32.304ZM45.0023 34.6307L44.3765 35.4107L44.3821 35.4151L45.0023 34.6307ZM49.7324 34.9759L49.2376 34.1069L49.7324 34.9759ZM51.177 33.5057L52.0518 33.9903L52.0545 33.9854L51.177 33.5057ZM51.6884 31.3068L50.6884 31.2967C50.6884 31.3035 50.6884 31.3103 50.6884 31.3171L51.6884 31.3068ZM51.1642 29.0952L50.2895 29.5798L50.2946 29.5888L51.1642 29.0952ZM49.7069 27.625L49.203 28.4888C49.2077 28.4915 49.2124 28.4942 49.2172 28.4969L49.7069 27.625ZM47.5847 27.0881L47.5735 28.0881H47.5847V27.0881ZM45.4242 27.5866L44.977 26.6922L44.9725 26.6945L45.4242 27.5866ZM43.8901 28.9801L43.7057 29.963C44.1183 30.0404 44.5353 29.8518 44.7498 29.4909L43.8901 28.9801ZM38.3034 27.9318L37.3067 27.8515C37.2656 28.3615 37.6161 28.8203 38.119 28.9147L38.3034 27.9318ZM39.4412 13.8182V12.8182C38.9201 12.8182 38.4863 13.2184 38.4445 13.7378L39.4412 13.8182ZM56.2395 13.8182H57.2395C57.2395 13.2659 56.7918 12.8182 56.2395 12.8182V13.8182ZM56.2395 18.919V19.919C56.7918 19.919 57.2395 19.4713 57.2395 18.919H56.2395ZM44.6444 18.919V17.919C44.1296 17.919 43.6989 18.3098 43.6491 18.8222L44.6444 18.919ZM44.0435 25.0938L43.0482 24.9969C43.0209 25.2776 43.1134 25.5569 43.3029 25.7657C43.4925 25.9746 43.7614 26.0938 44.0435 26.0938V25.0938ZM44.1969 25.0938V26.0938C44.5482 26.0938 44.8737 25.9095 45.0544 25.6082L44.1969 25.0938ZM46.2935 23.304L46.7311 24.2031L46.7344 24.2015L46.2935 23.304ZM53.7978 23.6875L53.285 24.5461L53.292 24.5502L53.7978 23.6875ZM56.7125 26.7045L55.8362 27.1862L55.8387 27.1907L56.7125 26.7045ZM56.508 35.9091L55.6556 35.3862L55.6533 35.39L56.508 35.9091ZM52.954 39.1818L53.4132 40.0702L53.4151 40.0692L52.954 39.1818ZM47.623 39.358C45.8356 39.358 44.2875 39.0352 42.957 38.4159L42.1129 40.229C43.7484 40.9904 45.5924 41.358 47.623 41.358V39.358ZM42.957 38.4159C41.6148 37.791 40.5847 36.947 39.8342 35.892L38.2045 37.0512C39.1756 38.4166 40.4893 39.4732 42.1129 40.229L42.957 38.4159ZM39.837 35.8958C39.1061 34.858 38.7196 33.6642 38.6896 32.2822L36.69 32.3257C36.7282 34.0801 37.2281 35.6647 38.2017 37.0474L39.837 35.8958ZM37.6898 33.304H43.8262V31.304H37.6898V33.304ZM42.8276 32.357C42.8934 33.5959 43.4149 34.6391 44.3765 35.4107L45.6281 33.8507C45.1238 33.4461 44.8613 32.9382 44.8248 32.251L42.8276 32.357ZM44.3821 35.4151C45.3071 36.1465 46.4042 36.5 47.623 36.5V34.5C46.8135 34.5 46.1635 34.274 45.6225 33.8463L44.3821 35.4151ZM47.623 36.5C48.5675 36.5 49.4451 36.2903 50.2273 35.8448L49.2376 34.1069C48.7925 34.3603 48.2638 34.5 47.623 34.5V36.5ZM50.2273 35.8448C51.0039 35.4026 51.6153 34.778 52.0517 33.9903L50.3023 33.021C50.0399 33.4947 49.6882 33.8503 49.2376 34.1069L50.2273 35.8448ZM52.0545 33.9854C52.4965 33.1767 52.6984 32.2709 52.6883 31.2965L50.6884 31.3171C50.6954 31.9962 50.5564 32.5563 50.2996 33.026L52.0545 33.9854ZM52.6883 31.3169C52.6983 30.3259 52.4923 29.4092 52.0339 28.6016L50.2946 29.5888C50.5521 30.0425 50.6955 30.6002 50.6884 31.2967L52.6883 31.3169ZM52.039 28.6105C51.6006 27.8193 50.9823 27.1944 50.1965 26.7531L49.2172 28.4969C49.6758 28.7545 50.029 29.1096 50.2895 29.5798L52.039 28.6105ZM50.2107 26.7612C49.4254 26.3031 48.5398 26.0881 47.5847 26.0881V28.0881C48.2319 28.0881 48.7611 28.231 49.203 28.4888L50.2107 26.7612ZM47.5959 26.0881C46.6776 26.0778 45.8003 26.2806 44.977 26.6922L45.8714 28.4811C46.4117 28.2109 46.9748 28.0813 47.5735 28.088L47.5959 26.0881ZM44.9725 26.6945C44.1478 27.112 43.4867 27.7013 43.0304 28.4693L44.7498 29.4909C44.9923 29.0828 45.3539 28.7431 45.8759 28.4788L44.9725 26.6945ZM44.0745 27.9973L38.4879 26.949L38.119 28.9147L43.7057 29.963L44.0745 27.9973ZM39.3002 28.0122L40.438 13.8985L38.4445 13.7378L37.3067 27.8515L39.3002 28.0122ZM39.4412 14.8182H56.2395V12.8182H39.4412V14.8182ZM55.2395 13.8182V18.919H57.2395V13.8182H55.2395ZM56.2395 17.919H44.6444V19.919H56.2395V17.919ZM43.6491 18.8222L43.0482 24.9969L45.0388 25.1906L45.6397 19.0159L43.6491 18.8222ZM44.0435 26.0938H44.1969V24.0938H44.0435V26.0938ZM45.0544 25.6082C45.3657 25.0893 45.8959 24.6097 46.7311 24.2031L45.8559 22.4048C44.7649 22.9358 43.8974 23.6493 43.3394 24.5793L45.0544 25.6082ZM46.7344 24.2015C47.5505 23.8006 48.4999 23.5881 49.6046 23.5881V21.5881C48.2376 21.5881 46.9796 21.8528 45.8526 22.4064L46.7344 24.2015ZM49.6046 23.5881C51.0103 23.5881 52.2276 23.9145 53.285 24.546L54.3105 22.829C52.9134 21.9946 51.3353 21.5881 49.6046 21.5881V23.5881ZM53.292 24.5502C54.3681 25.181 55.2134 26.0532 55.8362 27.1862L57.5889 26.2228C56.7969 24.782 55.699 23.6429 54.3035 22.8248L53.292 24.5502ZM55.8387 27.1907C56.4617 28.3106 56.7864 29.6138 56.7864 31.1278H58.7864C58.7864 29.318 58.3952 27.6723 57.5864 26.2184L55.8387 27.1907ZM56.7864 31.1278C56.7864 32.7612 56.4016 34.1703 55.6556 35.3862L57.3604 36.432C58.319 34.8695 58.7864 33.091 58.7864 31.1278H56.7864ZM55.6533 35.39C54.9101 36.6135 53.8659 37.5812 52.493 38.2944L53.4151 40.0692C55.0933 39.1973 56.4183 37.983 57.3627 36.4282L55.6533 35.39ZM52.4949 38.2935C51.1447 38.9913 49.5308 39.358 47.623 39.358V41.358C49.7891 41.358 51.7293 40.9405 53.4132 40.0702L52.4949 38.2935Z" fill="black"/>
</g>
<defs>
<filter id="filter0_d_3_78" x="0" y="0" width="94" height="61" filterUnits="userSpaceOnUse" color-interpolation-filters="sRGB">
<feFlood flood-opacity="0" result="BackgroundImageFix"/>
<feColorMatrix in="SourceAlpha" type="matrix" values="0 0 0 0 0 0 0 0 0 0 0 0 0 0 0 0 0 0 127 0" result="hardAlpha"/>
<feOffset dy="4"/>
<feGaussianBlur stdDeviation="2"/>
<feComposite in2="hardAlpha" operator="out"/>
<feColorMatrix type="matrix" values="0 0 0 0 0 0 0 0 0 0 0 0 0 0 0 0 0 0 0.25 0"/>
<feBlend mode="normal" in2="BackgroundImageFix" result="effect1_dropShadow_3_78"/>
<feBlend mode="normal" in="SourceGraphic" in2="effect1_dropShadow_3_78" result="shape"/>
</filter>
<filter id="filter1_d_3_78" x="33.6898" y="13.8182" width="28.0966" height="34.5398" filterUnits="userSpaceOnUse" color-interpolation-filters="sRGB">
<feFlood flood-opacity="0" result="BackgroundImageFix"/>
<feColorMatrix in="SourceAlpha" type="matrix" values="0 0 0 0 0 0 0 0 0 0 0 0 0 0 0 0 0 0 127 0" result="hardAlpha"/>
<feOffset dy="4"/>
<feGaussianBlur stdDeviation="2"/>
<feComposite in2="hardAlpha" operator="out"/>
<feColorMatrix type="matrix" values="0 0 0 0 0 0 0 0 0 0 0 0 0 0 0 0 0 0 0.25 0"/>
<feBlend mode="normal" in2="BackgroundImageFix" result="effect1_dropShadow_3_78"/>
<feBlend mode="normal" in="SourceGraphic" in2="effect1_dropShadow_3_78" result="shape"/>
</filter>
</defs>
</svg>
