<svg width="94" height="61" viewBox="0 0 94 61" fill="none" xmlns="http://www.w3.org/2000/svg">
<g filter="url(#filter0_d_3_82)">
<rect x="4" width="86" height="53" rx="26.5" fill="#EBCC71"/>
<rect x="4.75" y="0.75" width="84.5" height="51.5" rx="25.75" stroke="black" stroke-width="1.5"/>
</g>
<g filter="url(#filter1_d_3_82)">
<path d="M47.8148 40.358C46.383 40.358 45.0108 40.1278 43.6983 39.6676C42.3858 39.1989 41.2182 38.4574 40.1955 37.4432C39.1728 36.4205 38.3674 35.0824 37.7793 33.429C37.1912 31.767 36.9015 29.7429 36.91 27.3565C36.9185 25.2003 37.1827 23.2656 37.7026 21.5526C38.2225 19.831 38.964 18.3693 39.927 17.1676C40.8986 15.9659 42.0577 15.0497 43.4043 14.419C44.7594 13.7798 46.2722 13.4602 47.9426 13.4602C49.775 13.4602 51.3901 13.8182 52.7878 14.5341C54.1941 15.2415 55.3191 16.196 56.1628 17.3977C57.0066 18.5909 57.5052 19.9205 57.6586 21.3864H51.4327C51.2452 20.5597 50.8319 19.9332 50.1926 19.5071C49.562 19.0724 48.812 18.8551 47.9426 18.8551C46.3404 18.8551 45.1429 19.5497 44.3503 20.9389C43.5662 22.3281 43.1657 24.1861 43.1486 26.5128H43.3148C43.6728 25.7287 44.1884 25.0554 44.8617 24.4929C45.535 23.9304 46.3063 23.5 47.1756 23.2017C48.0534 22.8949 48.9824 22.7415 49.9625 22.7415C51.5307 22.7415 52.9157 23.1037 54.1174 23.8281C55.3191 24.5526 56.2608 25.5455 56.9427 26.8068C57.6245 28.0597 57.9611 29.4957 57.9526 31.1151C57.9611 32.9389 57.535 34.5497 56.6742 35.9474C55.8134 37.3366 54.6202 38.419 53.0946 39.1946C51.5776 39.9702 49.8176 40.358 47.8148 40.358ZM47.7765 35.5C48.552 35.5 49.2466 35.3168 49.8603 34.9503C50.4739 34.5838 50.9554 34.0852 51.3049 33.4545C51.6543 32.8239 51.8248 32.1122 51.8162 31.3196C51.8248 30.5185 51.6543 29.8068 51.3049 29.1847C50.964 28.5625 50.4867 28.0682 49.873 27.7017C49.2679 27.3352 48.5733 27.152 47.7892 27.152C47.2182 27.152 46.6855 27.2585 46.1912 27.4716C45.6969 27.6847 45.2665 27.983 44.9 28.3665C44.5421 28.7415 44.2608 29.1847 44.0563 29.696C43.8517 30.1989 43.7452 30.7443 43.7367 31.3324C43.7452 32.108 43.9242 32.8111 44.2736 33.4418C44.623 34.0724 45.1003 34.5753 45.7054 34.9503C46.3105 35.3168 47.0009 35.5 47.7765 35.5Z" fill="white"/>
<path d="M43.6983 39.6676L43.362 40.6094L43.3674 40.6113L43.6983 39.6676ZM40.1955 37.4432L39.4884 38.1503L39.4913 38.1532L40.1955 37.4432ZM37.7793 33.429L36.8366 33.7626L36.8371 33.7641L37.7793 33.429ZM36.91 27.3565L35.91 27.3526L35.91 27.353L36.91 27.3565ZM37.7026 21.5526L38.6595 21.843L38.6599 21.8416L37.7026 21.5526ZM39.927 17.1676L39.1494 16.5389L39.1467 16.5422L39.927 17.1676ZM43.4043 14.419L43.8284 15.3246L43.8309 15.3235L43.4043 14.419ZM52.7878 14.5341L52.3319 15.4242L52.3384 15.4274L52.7878 14.5341ZM56.1628 17.3977L55.3444 17.9724L55.3463 17.9751L56.1628 17.3977ZM57.6586 21.3864V22.3864C57.9419 22.3864 58.2119 22.2662 58.4016 22.0557C58.5912 21.8451 58.6826 21.5641 58.6531 21.2823L57.6586 21.3864ZM51.4327 21.3864L50.4575 21.6075C50.5608 22.063 50.9656 22.3864 51.4327 22.3864V21.3864ZM50.1926 19.5071L49.6252 20.3305C49.6294 20.3334 49.6337 20.3363 49.6379 20.3392L50.1926 19.5071ZM44.3503 20.9389L43.4817 20.4433L43.4795 20.4474L44.3503 20.9389ZM43.1486 26.5128L42.1486 26.5055C42.1467 26.7719 42.2512 27.0282 42.4389 27.2173C42.6267 27.4064 42.8821 27.5128 43.1486 27.5128V26.5128ZM43.3148 26.5128V27.5128C43.7064 27.5128 44.0619 27.2843 44.2245 26.9281L43.3148 26.5128ZM44.8617 24.4929L45.5028 25.2603L44.8617 24.4929ZM47.1756 23.2017L47.5002 24.1476L47.5055 24.1457L47.1756 23.2017ZM54.1174 23.8281L53.6011 24.6845L54.1174 23.8281ZM56.9426 26.8068L56.0629 27.2823L56.0643 27.2848L56.9426 26.8068ZM57.9526 31.1151L56.9526 31.1098L56.9526 31.1197L57.9526 31.1151ZM56.6742 35.9474L57.5242 36.4742L57.5257 36.4718L56.6742 35.9474ZM53.0946 39.1946L52.6415 38.3032L52.6394 38.3042L53.0946 39.1946ZM51.8162 31.3196L50.8163 31.309C50.8162 31.3161 50.8162 31.3232 50.8163 31.3304L51.8162 31.3196ZM51.3049 29.1847L50.4278 29.6652L50.433 29.6744L51.3049 29.1847ZM49.873 27.7017L49.355 28.5571L49.3603 28.5602L49.873 27.7017ZM44.9 28.3665L44.177 27.6756L44.1767 27.676L44.9 28.3665ZM44.0563 29.696L44.9826 30.0728L44.9848 30.0674L44.0563 29.696ZM43.7367 31.3324L42.7368 31.3179C42.7367 31.3264 42.7367 31.3349 42.7367 31.3434L43.7367 31.3324ZM44.2736 33.4418L43.3989 33.9264L44.2736 33.4418ZM45.7054 34.9503L45.1786 35.8003L45.1874 35.8056L45.7054 34.9503ZM47.8148 39.358C46.4923 39.358 45.2323 39.1458 44.0292 38.7239L43.3674 40.6113C44.7894 41.1099 46.2737 41.358 47.8148 41.358V39.358ZM44.0347 38.7259C42.865 38.3081 41.8218 37.6476 40.8996 36.7331L39.4913 38.1532C40.6146 39.2672 41.9067 40.0896 43.362 40.6094L44.0347 38.7259ZM40.9026 36.7361C40.0049 35.8383 39.2702 34.6367 38.7215 33.0939L36.8371 33.7641C37.4645 35.5281 38.3407 37.0026 39.4884 38.1503L40.9026 36.7361ZM38.722 33.0954C38.1831 31.5725 37.9017 29.6696 37.91 27.3601L35.91 27.353C35.9012 29.8162 36.1993 31.9616 36.8366 33.7626L38.722 33.0954ZM37.91 27.3605C37.9182 25.2822 38.1729 23.4464 38.6595 21.843L36.7457 21.2622C36.1925 23.0848 35.9188 25.1184 35.91 27.3526L37.91 27.3605ZM38.6599 21.8416C39.1489 20.2222 39.8365 18.8797 40.7074 17.793L39.1467 16.5422C38.0915 17.859 37.296 19.4397 36.7453 21.2635L38.6599 21.8416ZM40.7047 17.7963C41.5848 16.7078 42.6246 15.8885 43.8284 15.3246L42.9802 13.5134C41.4908 14.211 40.2125 15.2241 39.1494 16.5389L40.7047 17.7963ZM43.8309 15.3235C45.038 14.7541 46.4026 14.4602 47.9426 14.4602V12.4602C46.1418 12.4602 44.4808 12.8056 42.9777 13.5146L43.8309 15.3235ZM47.9426 14.4602C49.643 14.4602 51.0971 14.7917 52.3319 15.4241L53.2437 13.644C51.6831 12.8447 49.9071 12.4602 47.9426 12.4602V14.4602ZM52.3384 15.4274C53.6082 16.0662 54.6023 16.9154 55.3444 17.9724L56.9812 16.8231C56.0359 15.4767 54.7799 14.4168 53.2372 13.6407L52.3384 15.4274ZM55.3463 17.9751C56.0903 19.0271 56.5283 20.1934 56.664 21.4904L58.6531 21.2823C58.482 19.6475 57.9229 18.1547 56.9793 16.8204L55.3463 17.9751ZM57.6586 20.3864H51.4327V22.3864H57.6586V20.3864ZM52.4079 21.1652C52.1701 20.1166 51.6227 19.2586 50.7473 18.6751L49.6379 20.3392C50.041 20.6078 50.3203 21.0027 50.4575 21.6075L52.4079 21.1652ZM50.7601 18.6837C49.9407 18.1189 48.9863 17.8551 47.9426 17.8551V19.8551C48.6376 19.8551 49.1833 20.0259 49.6252 20.3305L50.7601 18.6837ZM47.9426 17.8551C45.9821 17.8551 44.4527 18.7416 43.4817 20.4434L45.2189 21.4345C45.8332 20.3579 46.6987 19.8551 47.9426 19.8551V17.8551ZM43.4795 20.4474C42.5823 22.0369 42.1664 24.0816 42.1486 26.5055L44.1486 26.5201C44.1649 24.2905 44.5501 22.6194 45.2212 21.4304L43.4795 20.4474ZM43.1486 27.5128H43.3148V25.5128H43.1486V27.5128ZM44.2245 26.9281C44.5192 26.2824 44.9421 25.7288 45.5028 25.2603L44.2205 23.7255C43.4347 24.382 42.8263 25.1749 42.4051 26.0975L44.2245 26.9281ZM45.5028 25.2603C46.078 24.7798 46.7408 24.4081 47.5002 24.1476L46.851 22.2558C45.8718 22.5919 44.992 23.081 44.2205 23.7255L45.5028 25.2603ZM47.5055 24.1457C48.2717 23.8779 49.0887 23.7415 49.9625 23.7415V21.7415C48.8762 21.7415 47.8352 21.9119 46.8457 22.2577L47.5055 24.1457ZM49.9625 23.7415C51.3707 23.7415 52.573 24.0648 53.6011 24.6845L54.6336 22.9717C53.2583 22.1426 51.6907 21.7415 49.9625 21.7415V23.7415ZM53.6011 24.6845C54.6463 25.3147 55.4641 26.1745 56.0629 27.2823L57.8224 26.3313C57.0575 24.9164 55.9918 23.7905 54.6336 22.9717L53.6011 24.6845ZM56.0643 27.2848C56.655 28.3703 56.9604 29.6361 56.9526 31.1098L58.9526 31.1203C58.9619 29.3554 58.5939 27.749 57.821 26.3288L56.0643 27.2848ZM56.9526 31.1197C56.9604 32.7782 56.5749 34.2016 55.8227 35.4231L57.5257 36.4718C58.495 34.8978 58.9619 33.0996 58.9526 31.1104L56.9526 31.1197ZM55.8241 35.4207C55.0644 36.6468 54.0119 37.6065 52.6415 38.3032L53.5478 40.086C55.2285 39.2316 56.5624 38.0265 57.5242 36.4742L55.8241 35.4207ZM52.6394 38.3042C51.2861 38.9961 49.6871 39.358 47.8148 39.358V41.358C49.9482 41.358 51.8691 40.9442 53.5498 40.085L52.6394 38.3042ZM47.7765 36.5C48.7167 36.5 49.5913 36.2757 50.373 35.8088L49.3475 34.0917C48.902 34.3578 48.3874 34.5 47.7765 34.5V36.5ZM50.373 35.8088C51.1396 35.351 51.7454 34.7228 52.1796 33.9392L50.4302 32.9699C50.1655 33.4476 49.8082 33.8166 49.3475 34.0917L50.373 35.8088ZM52.1796 33.9392C52.6211 33.1423 52.8264 32.257 52.8162 31.3088L50.8163 31.3304C50.8231 31.9674 50.6875 32.5055 50.4302 32.9699L52.1796 33.9392ZM52.8162 31.3302C52.8263 30.3759 52.6221 29.4879 52.1768 28.695L50.433 29.6744C50.6865 30.1258 50.8232 30.661 50.8163 31.309L52.8162 31.3302ZM52.1818 28.7041C51.7547 27.9245 51.1511 27.3002 50.3858 26.8432L49.3603 28.5602C49.8222 28.8361 50.1732 29.2004 50.4279 29.6652L52.1818 28.7041ZM50.3911 26.8463C49.6132 26.3752 48.7356 26.152 47.7892 26.152V28.152C48.4111 28.152 48.9227 28.2952 49.355 28.5571L50.3911 26.8463ZM47.7892 26.152C47.0905 26.152 46.4222 26.2831 45.7954 26.5533L46.5871 28.3899C46.9489 28.234 47.3459 28.152 47.7892 28.152V26.152ZM45.7954 26.5533C45.1797 26.8186 44.6376 27.1936 44.177 27.6756L45.623 29.0573C45.8954 28.7723 46.2141 28.5507 46.5871 28.3899L45.7954 26.5533ZM44.1767 27.676C43.7252 28.149 43.3768 28.7023 43.1278 29.3246L44.9848 30.0674C45.1449 29.667 45.3589 29.334 45.6234 29.057L44.1767 27.676ZM43.13 29.3192C42.8748 29.9465 42.747 30.616 42.7368 31.3179L44.7366 31.3469C44.7435 30.8727 44.8286 30.4512 44.9826 30.0728L43.13 29.3192ZM42.7367 31.3434C42.7469 32.2719 42.9631 33.1398 43.3989 33.9264L45.1483 32.9571C44.8853 32.4824 44.7435 31.944 44.7366 31.3214L42.7367 31.3434ZM43.3989 33.9264C43.8301 34.7046 44.4263 35.334 45.1787 35.8003L46.2322 34.1003C45.7743 33.8165 45.416 33.4403 45.1483 32.9571L43.3989 33.9264ZM45.1874 35.8056C45.9636 36.2757 46.8364 36.5 47.7765 36.5V34.5C47.1654 34.5 46.6575 34.3578 46.2235 34.0949L45.1874 35.8056Z" fill="black"/>
</g>
<defs>
<filter id="filter0_d_3_82" x="0" y="0" width="94" height="61" filterUnits="userSpaceOnUse" color-interpolation-filters="sRGB">
<feFlood flood-opacity="0" result="BackgroundImageFix"/>
<feColorMatrix in="SourceAlpha" type="matrix" values="0 0 0 0 0 0 0 0 0 0 0 0 0 0 0 0 0 0 127 0" result="hardAlpha"/>
<feOffset dy="4"/>
<feGaussianBlur stdDeviation="2"/>
<feComposite in2="hardAlpha" operator="out"/>
<feColorMatrix type="matrix" values="0 0 0 0 0 0 0 0 0 0 0 0 0 0 0 0 0 0 0.25 0"/>
<feBlend mode="normal" in2="BackgroundImageFix" result="effect1_dropShadow_3_82"/>
<feBlend mode="normal" in="SourceGraphic" in2="effect1_dropShadow_3_82" result="shape"/>
</filter>
<filter id="filter1_d_3_82" x="32.8972" y="13.4602" width="29.0682" height="34.8977" filterUnits="userSpaceOnUse" color-interpolation-filters="sRGB">
<feFlood flood-opacity="0" result="BackgroundImageFix"/>
<feColorMatrix in="SourceAlpha" type="matrix" values="0 0 0 0 0 0 0 0 0 0 0 0 0 0 0 0 0 0 127 0" result="hardAlpha"/>
<feOffset dy="4"/>
<feGaussianBlur stdDeviation="2"/>
<feComposite in2="hardAlpha" operator="out"/>
<feColorMatrix type="matrix" values="0 0 0 0 0 0 0 0 0 0 0 0 0 0 0 0 0 0 0.25 0"/>
<feBlend mode="normal" in2="BackgroundImageFix" result="effect1_dropShadow_3_82"/>
<feBlend mode="normal" in="SourceGraphic" in2="effect1_dropShadow_3_82" result="shape"/>
</filter>
</defs>
</svg>
