<svg width="94" height="61" viewBox="0 0 94 61" fill="none" xmlns="http://www.w3.org/2000/svg">
<g filter="url(#filter0_d_3_73)">
<rect x="4" width="86" height="53" rx="26.5" fill="#EBCC71"/>
<rect x="4.75" y="0.75" width="84.5" height="51.5" rx="25.75" stroke="black" stroke-width="1.5"/>
</g>
<g filter="url(#filter1_d_3_73)">
<path d="M39.6969 40L50.2566 19.0852V18.919H37.9071V13.8182H56.802V18.9574L46.204 40H39.6969Z" fill="white"/>
<path d="M39.6969 40L38.8042 39.5493C38.6477 39.8593 38.6632 40.2283 38.8452 40.5241C39.0272 40.8198 39.3496 41 39.6969 41V40ZM50.2566 19.0852L51.1492 19.5359C51.2198 19.3962 51.2566 19.2418 51.2566 19.0852H50.2566ZM50.2566 18.919H51.2566C51.2566 18.3667 50.8089 17.919 50.2566 17.919V18.919ZM37.9071 18.919H36.9071C36.9071 19.4713 37.3549 19.919 37.9071 19.919V18.919ZM37.9071 13.8182V12.8182C37.3549 12.8182 36.9071 13.2659 36.9071 13.8182H37.9071ZM56.802 13.8182H57.802C57.802 13.2659 57.3543 12.8182 56.802 12.8182V13.8182ZM56.802 18.9574L57.6951 19.4072C57.7654 19.2677 57.802 19.1136 57.802 18.9574H56.802ZM46.204 40V41C46.5817 41 46.9272 40.7872 47.0971 40.4498L46.204 40ZM40.5896 40.4507L51.1492 19.5359L49.3639 18.6345L38.8042 39.5493L40.5896 40.4507ZM51.2566 19.0852V18.919H49.2566V19.0852H51.2566ZM50.2566 17.919H37.9071V19.919H50.2566V17.919ZM38.9071 18.919V13.8182H36.9071V18.919H38.9071ZM37.9071 14.8182H56.802V12.8182H37.9071V14.8182ZM55.802 13.8182V18.9574H57.802V13.8182H55.802ZM55.9089 18.5076L45.3109 39.5502L47.0971 40.4498L57.6951 19.4072L55.9089 18.5076ZM46.204 39H39.6969V41H46.204V39Z" fill="black"/>
</g>
<defs>
<filter id="filter0_d_3_73" x="0" y="0" width="94" height="61" filterUnits="userSpaceOnUse" color-interpolation-filters="sRGB">
<feFlood flood-opacity="0" result="BackgroundImageFix"/>
<feColorMatrix in="SourceAlpha" type="matrix" values="0 0 0 0 0 0 0 0 0 0 0 0 0 0 0 0 0 0 127 0" result="hardAlpha"/>
<feOffset dy="4"/>
<feGaussianBlur stdDeviation="2"/>
<feComposite in2="hardAlpha" operator="out"/>
<feColorMatrix type="matrix" values="0 0 0 0 0 0 0 0 0 0 0 0 0 0 0 0 0 0 0.25 0"/>
<feBlend mode="normal" in2="BackgroundImageFix" result="effect1_dropShadow_3_73"/>
<feBlend mode="normal" in="SourceGraphic" in2="effect1_dropShadow_3_73" result="shape"/>
</filter>
<filter id="filter1_d_3_73" x="33.9071" y="13.8182" width="26.8949" height="34.1818" filterUnits="userSpaceOnUse" color-interpolation-filters="sRGB">
<feFlood flood-opacity="0" result="BackgroundImageFix"/>
<feColorMatrix in="SourceAlpha" type="matrix" values="0 0 0 0 0 0 0 0 0 0 0 0 0 0 0 0 0 0 127 0" result="hardAlpha"/>
<feOffset dy="4"/>
<feGaussianBlur stdDeviation="2"/>
<feComposite in2="hardAlpha" operator="out"/>
<feColorMatrix type="matrix" values="0 0 0 0 0 0 0 0 0 0 0 0 0 0 0 0 0 0 0.25 0"/>
<feBlend mode="normal" in2="BackgroundImageFix" result="effect1_dropShadow_3_73"/>
<feBlend mode="normal" in="SourceGraphic" in2="effect1_dropShadow_3_73" result="shape"/>
</filter>
</defs>
</svg>
