<svg width="94" height="61" viewBox="0 0 94 61" fill="none" xmlns="http://www.w3.org/2000/svg">
<g filter="url(#filter0_d_3_77)">
<rect x="4" width="86" height="53" rx="26.5" fill="#EBCC71"/>
<rect x="4.75" y="0.75" width="84.5" height="51.5" rx="25.75" stroke="black" stroke-width="1.5"/>
</g>
<g filter="url(#filter1_d_3_77)">
<path d="M47.4936 40.358C45.4567 40.358 43.6371 40.0341 42.0348 39.3864C40.4411 38.7301 39.1882 37.8437 38.2763 36.7273C37.3729 35.6023 36.9212 34.3324 36.9212 32.9176C36.9212 31.8352 37.1811 30.8423 37.701 29.9389C38.2209 29.0355 38.924 28.2855 39.8104 27.6889C40.7053 27.0838 41.7024 26.696 42.8018 26.5256V26.321C41.3615 26.0568 40.1811 25.3878 39.2607 24.3139C38.3487 23.2401 37.8928 21.983 37.8928 20.5426C37.8928 19.179 38.3061 17.9645 39.1328 16.8991C39.968 15.8338 41.1058 14.9943 42.5462 14.3807C43.995 13.767 45.6442 13.4602 47.4936 13.4602C49.343 13.4602 50.9879 13.767 52.4283 14.3807C53.8771 14.9943 55.0149 15.8338 55.8416 16.8991C56.6768 17.9645 57.0945 19.179 57.0945 20.5426C57.0945 21.9915 56.63 23.2528 55.701 24.3267C54.7805 25.392 53.6087 26.0568 52.1854 26.321V26.5256C53.2763 26.696 54.2649 27.0838 55.1513 27.6889C56.0462 28.2855 56.7536 29.0355 57.2734 29.9389C57.8018 30.8423 58.0661 31.8352 58.0661 32.9176C58.0661 34.3324 57.6101 35.6023 56.6982 36.7273C55.7862 37.8437 54.5334 38.7301 52.9396 39.3864C51.3544 40.0341 49.5391 40.358 47.4936 40.358ZM47.4936 35.8707C48.2692 35.8707 48.951 35.7259 49.5391 35.4361C50.1271 35.1378 50.5874 34.7244 50.9197 34.196C51.2607 33.6676 51.4311 33.071 51.4311 32.4062C51.4311 31.7244 51.2607 31.1193 50.9197 30.5909C50.5788 30.0625 50.1101 29.6491 49.5135 29.3509C48.9254 29.044 48.2521 28.8906 47.4936 28.8906C46.7436 28.8906 46.0703 29.044 45.4737 29.3509C44.8771 29.6491 44.4084 30.0625 44.0675 30.5909C43.7266 31.1193 43.5561 31.7244 43.5561 32.4062C43.5561 33.071 43.7223 33.6676 44.0547 34.196C44.3956 34.7159 44.8601 35.125 45.4482 35.4233C46.0447 35.7216 46.7266 35.8707 47.4936 35.8707ZM47.4936 24.429C48.1584 24.429 48.7464 24.2926 49.2578 24.0199C49.7777 23.7472 50.1825 23.3679 50.4723 22.8821C50.7706 22.3963 50.9197 21.8466 50.9197 21.233C50.9197 20.6193 50.7706 20.0781 50.4723 19.6094C50.1825 19.1406 49.782 18.7741 49.2706 18.5099C48.7592 18.2372 48.1669 18.1009 47.4936 18.1009C46.8288 18.1009 46.2365 18.2372 45.7166 18.5099C45.1967 18.7741 44.7919 19.1406 44.5021 19.6094C44.2124 20.0781 44.0675 20.6193 44.0675 21.233C44.0675 21.8466 44.2124 22.3963 44.5021 22.8821C44.8004 23.3594 45.2095 23.7386 45.7294 24.0199C46.2493 24.2926 46.8374 24.429 47.4936 24.429Z" fill="white"/>
<path d="M42.0348 39.3864L41.654 40.3111L41.66 40.3135L42.0348 39.3864ZM38.2763 36.7273L37.4965 37.3534L37.5018 37.3599L38.2763 36.7273ZM37.701 29.9389L38.5677 30.4377L37.701 29.9389ZM39.8104 27.6889L40.3687 28.5185L40.3705 28.5173L39.8104 27.6889ZM42.8018 26.5256L42.9551 27.5138C43.4424 27.4382 43.8018 27.0187 43.8018 26.5256H42.8018ZM42.8018 26.321H43.8018C43.8018 25.8383 43.457 25.4245 42.9823 25.3374L42.8018 26.321ZM39.2607 24.3139L38.4984 24.9612L38.5014 24.9647L39.2607 24.3139ZM39.1328 16.8991L38.3458 16.2822L38.3428 16.2861L39.1328 16.8991ZM42.5462 14.3807L42.1562 13.4599L42.1542 13.4607L42.5462 14.3807ZM52.4283 14.3807L52.0363 15.3007L52.0383 15.3015L52.4283 14.3807ZM55.8416 16.8991L55.0516 17.5122L55.0546 17.5161L55.8416 16.8991ZM55.701 24.3267L54.9447 23.6725L54.9443 23.6729L55.701 24.3267ZM52.1854 26.321L52.0029 25.3378C51.5291 25.4258 51.1854 25.8391 51.1854 26.321H52.1854ZM52.1854 26.5256H51.1854C51.1854 27.0182 51.5442 27.4375 52.031 27.5136L52.1854 26.5256ZM55.1513 27.6889L54.5874 28.5149L54.5966 28.521L55.1513 27.6889ZM57.2734 29.9389L56.4067 30.4377L56.4103 30.4438L57.2734 29.9389ZM56.6982 36.7273L57.4726 37.3599L57.475 37.357L56.6982 36.7273ZM52.9396 39.3864L53.3179 40.3121L53.3204 40.311L52.9396 39.3864ZM49.5391 35.4361L49.9811 36.3332L49.9914 36.3279L49.5391 35.4361ZM50.9197 34.196L50.0794 33.6539L50.0733 33.6636L50.9197 34.196ZM50.9197 30.5909L50.0794 31.133L50.9197 30.5909ZM49.5135 29.3509L49.0509 30.2374C49.056 30.2401 49.0611 30.2427 49.0663 30.2453L49.5135 29.3509ZM45.4737 29.3509L45.921 30.2453L45.9311 30.2401L45.4737 29.3509ZM44.0675 30.5909L43.2272 30.0488L44.0675 30.5909ZM44.0547 34.196L43.2082 34.7285C43.2116 34.7338 43.215 34.7391 43.2184 34.7444L44.0547 34.196ZM45.4482 35.4233L44.9958 36.3151L45.0009 36.3177L45.4482 35.4233ZM49.2578 24.0199L48.7933 23.1343L48.7872 23.1375L49.2578 24.0199ZM50.4723 22.8821L49.6201 22.3588L49.6135 22.3698L50.4723 22.8821ZM50.4723 19.6094L49.6216 20.1352L49.6286 20.1462L50.4723 19.6094ZM49.2706 18.5099L48.8 19.3924L48.8116 19.3984L49.2706 18.5099ZM45.7166 18.5099L46.1697 19.4015L46.1812 19.3955L45.7166 18.5099ZM44.5021 19.6094L45.3527 20.1352L44.5021 19.6094ZM44.5021 22.8821L43.6433 23.3944C43.6469 23.4003 43.6505 23.4062 43.6541 23.4121L44.5021 22.8821ZM45.7294 24.0199L45.2535 24.8995L45.2649 24.9054L45.7294 24.0199ZM47.4936 39.358C45.5626 39.358 43.8735 39.0511 42.4096 38.4593L41.66 40.3135C43.4006 41.0171 45.3508 41.358 47.4936 41.358V39.358ZM42.4156 38.4617C40.9453 37.8563 39.839 37.0597 39.0508 36.0947L37.5018 37.3599C38.5374 38.6278 39.9368 39.6039 41.6541 40.311L42.4156 38.4617ZM39.056 36.1011C38.2921 35.1499 37.9212 34.0998 37.9212 32.9176H35.9212C35.9212 34.5649 36.4537 36.0547 37.4966 37.3534L39.056 36.1011ZM37.9212 32.9176C37.9212 32.0033 38.1386 31.1834 38.5677 30.4377L36.8343 29.4401C36.2236 30.5012 35.9212 31.6672 35.9212 32.9176H37.9212ZM38.5677 30.4377C39.0095 29.67 39.6058 29.032 40.3687 28.5185L39.252 26.8593C38.2422 27.539 37.4323 28.401 36.8343 29.4401L38.5677 30.4377ZM40.3705 28.5173C41.1395 27.9973 41.9969 27.6623 42.9551 27.5138L42.6486 25.5374C41.4079 25.7297 40.271 26.1703 39.2502 26.8605L40.3705 28.5173ZM43.8018 26.5256V26.321H41.8018V26.5256H43.8018ZM42.9823 25.3374C41.7587 25.113 40.7856 24.5565 40.0199 23.6631L38.5014 24.9647C39.5766 26.2191 40.9643 27.0007 42.6214 27.3046L42.9823 25.3374ZM40.0229 23.6666C39.2682 22.7779 38.8928 21.7516 38.8928 20.5426H36.8928C36.8928 22.2143 37.4293 23.7022 38.4984 24.9612L40.0229 23.6666ZM38.8928 20.5426C38.8928 19.3983 39.2339 18.4 39.9228 17.5122L38.3428 16.2861C37.3783 17.5289 36.8928 18.9597 36.8928 20.5426H38.8928ZM39.9198 17.5161C40.6357 16.603 41.6284 15.8587 42.9381 15.3007L42.1542 13.4607C40.5832 14.13 39.3004 15.0647 38.3458 16.2822L39.9198 17.5161ZM42.9362 15.3015C44.242 14.7485 45.755 14.4602 47.4936 14.4602V12.4602C45.5334 12.4602 43.7481 12.7856 42.1562 13.4599L42.9362 15.3015ZM47.4936 14.4602C49.2324 14.4602 50.7403 14.7485 52.0363 15.3007L52.8202 13.4607C51.2356 12.7856 49.4537 12.4602 47.4936 12.4602V14.4602ZM52.0383 15.3015C53.3561 15.8596 54.346 16.603 55.0516 17.5122L56.6317 16.2861C55.6838 15.0646 54.3981 14.129 52.8183 13.4599L52.0383 15.3015ZM55.0546 17.5161C55.7508 18.404 56.0945 19.4009 56.0945 20.5426H58.0945C58.0945 18.9571 57.6029 17.5249 56.6286 16.2822L55.0546 17.5161ZM56.0945 20.5426C56.0945 21.7566 55.713 22.7843 54.9447 23.6725L56.4573 24.9809C57.5469 23.7213 58.0945 22.2264 58.0945 20.5426H56.0945ZM54.9443 23.6729C54.1768 24.5613 53.2097 25.1138 52.0029 25.3378L52.3679 27.3042C54.0076 26.9998 55.3843 26.2228 56.4577 24.9805L54.9443 23.6729ZM51.1854 26.321V26.5256H53.1854V26.321H51.1854ZM52.031 27.5136C52.9794 27.6618 53.8274 27.9959 54.5874 28.5148L55.7151 26.863C54.7024 26.1717 53.5731 25.7303 52.3397 25.5376L52.031 27.5136ZM54.5966 28.521C55.3674 29.0348 55.9662 29.6723 56.4067 30.4377L58.1402 29.4401C57.5409 28.3987 56.725 27.5362 55.706 26.8569L54.5966 28.521ZM56.4103 30.4438C56.8459 31.1887 57.0661 32.0063 57.0661 32.9176H59.0661C59.0661 31.6641 58.7578 30.496 58.1366 29.434L56.4103 30.4438ZM57.0661 32.9176C57.0661 34.0973 56.6926 35.1461 55.9213 36.0976L57.475 37.357C58.5276 36.0584 59.0661 34.5675 59.0661 32.9176H57.0661ZM55.9237 36.0947C55.1354 37.0597 54.0291 37.8563 52.5589 38.4617L53.3204 40.311C55.0377 39.6039 56.437 38.6278 57.4726 37.3599L55.9237 36.0947ZM52.5614 38.4607C51.1171 39.0508 49.4341 39.358 47.4936 39.358V41.358C49.6441 41.358 51.5917 41.0174 53.3179 40.3121L52.5614 38.4607ZM47.4936 36.8707C48.3946 36.8707 49.2325 36.7019 49.9811 36.3331L49.0971 34.5391C48.6695 34.7498 48.1438 34.8707 47.4936 34.8707V36.8707ZM49.9914 36.3279C50.7315 35.9525 51.3319 35.4189 51.7662 34.7285L50.0733 33.6636C49.8428 34.03 49.5228 34.3231 49.0867 34.5443L49.9914 36.3279ZM51.76 34.7382C52.2113 34.0387 52.4311 33.2518 52.4311 32.4062H50.4311C50.4311 32.8903 50.31 33.2965 50.0794 33.6539L51.76 34.7382ZM52.4311 32.4062C52.4311 31.549 52.214 30.7524 51.76 30.0488L50.0794 31.133C50.3073 31.4862 50.4311 31.8999 50.4311 32.4062H52.4311ZM51.76 30.0488C51.3161 29.3606 50.7074 28.8298 49.9607 28.4564L49.0663 30.2453C49.5128 30.4685 49.8416 30.7644 50.0794 31.133L51.76 30.0488ZM49.9761 28.4643C49.2259 28.0729 48.3899 27.8906 47.4936 27.8906V29.8906C48.1144 29.8906 48.625 30.0152 49.0509 30.2374L49.9761 28.4643ZM47.4936 27.8906C46.6035 27.8906 45.7704 28.0738 45.0164 28.4616L45.9311 30.2401C46.3702 30.0143 46.8837 29.8906 47.4936 29.8906V27.8906ZM45.0265 28.4564C44.2798 28.8298 43.6711 29.3606 43.2272 30.0488L44.9078 31.133C45.1456 30.7644 45.4744 30.4685 45.9209 30.2453L45.0265 28.4564ZM43.2272 30.0488C42.7732 30.7524 42.5561 31.549 42.5561 32.4062H44.5561C44.5561 31.8999 44.6799 31.4862 44.9078 31.133L43.2272 30.0488ZM42.5561 32.4062C42.5561 33.2467 42.7689 34.0301 43.2082 34.7285L44.9011 33.6636C44.6757 33.3051 44.5561 32.8954 44.5561 32.4062H42.5561ZM43.2184 34.7444C43.661 35.4192 44.2618 35.9428 44.9958 36.3151L45.9005 34.5315C45.4584 34.3072 45.1302 34.0126 44.8909 33.6477L43.2184 34.7444ZM45.0009 36.3177C45.7559 36.6952 46.5947 36.8707 47.4936 36.8707V34.8707C46.8585 34.8707 46.3336 34.748 45.8954 34.5289L45.0009 36.3177ZM47.4936 25.429C48.2982 25.429 49.0522 25.2629 49.7284 24.9022L48.7872 23.1375C48.4407 23.3223 48.0186 23.429 47.4936 23.429V25.429ZM49.7224 24.9054C50.3991 24.5504 50.9432 24.0448 51.3311 23.3944L49.6135 22.3698C49.4219 22.691 49.1563 22.9439 48.7933 23.1343L49.7224 24.9054ZM51.3245 23.4054C51.7268 22.7501 51.9197 22.0166 51.9197 21.233H49.9197C49.9197 21.6765 49.8144 22.0425 49.6201 22.3588L51.3245 23.4054ZM51.9197 21.233C51.9197 20.4497 51.7269 19.7182 51.316 19.0725L49.6286 20.1462C49.8143 20.438 49.9197 20.7889 49.9197 21.233H51.9197ZM51.3229 19.0836C50.9335 18.4537 50.3945 17.965 49.7296 17.6215L48.8116 19.3984C49.1695 19.5833 49.4315 19.8276 49.6217 20.1352L51.3229 19.0836ZM49.7412 17.6276C49.0632 17.266 48.3044 17.1009 47.4936 17.1009V19.1009C48.0294 19.1009 48.4553 19.2085 48.8 19.3923L49.7412 17.6276ZM47.4936 17.1009C46.6887 17.1009 45.9333 17.267 45.2521 17.6244L46.1812 19.3955C46.5397 19.2074 46.969 19.1009 47.4936 19.1009V17.1009ZM45.2636 17.6185C44.5901 17.9607 44.0435 18.4495 43.6515 19.0836L45.3527 20.1352C45.5403 19.8317 45.8034 19.5876 46.1697 19.4014L45.2636 17.6185ZM43.6515 19.0836C43.2533 19.7278 43.0675 20.4553 43.0675 21.233H45.0675C45.0675 20.7833 45.1714 20.4284 45.3527 20.1352L43.6515 19.0836ZM43.0675 21.233C43.0675 22.0111 43.2534 22.7406 43.6433 23.3944L45.361 22.3698C45.1714 22.052 45.0675 21.682 45.0675 21.233H43.0675ZM43.6541 23.4121C44.0488 24.0436 44.5894 24.5401 45.2536 24.8994L46.2052 23.1403C45.8296 22.9371 45.552 22.6751 45.3501 22.3521L43.6541 23.4121ZM45.2649 24.9054C45.9443 25.2618 46.6949 25.429 47.4936 25.429V23.429C46.9798 23.429 46.5543 23.3234 46.194 23.1343L45.2649 24.9054Z" fill="black"/>
</g>
<defs>
<filter id="filter0_d_3_77" x="0" y="0" width="94" height="61" filterUnits="userSpaceOnUse" color-interpolation-filters="sRGB">
<feFlood flood-opacity="0" result="BackgroundImageFix"/>
<feColorMatrix in="SourceAlpha" type="matrix" values="0 0 0 0 0 0 0 0 0 0 0 0 0 0 0 0 0 0 127 0" result="hardAlpha"/>
<feOffset dy="4"/>
<feGaussianBlur stdDeviation="2"/>
<feComposite in2="hardAlpha" operator="out"/>
<feColorMatrix type="matrix" values="0 0 0 0 0 0 0 0 0 0 0 0 0 0 0 0 0 0 0.25 0"/>
<feBlend mode="normal" in2="BackgroundImageFix" result="effect1_dropShadow_3_77"/>
<feBlend mode="normal" in="SourceGraphic" in2="effect1_dropShadow_3_77" result="shape"/>
</filter>
<filter id="filter1_d_3_77" x="32.9212" y="13.4602" width="29.1449" height="34.8977" filterUnits="userSpaceOnUse" color-interpolation-filters="sRGB">
<feFlood flood-opacity="0" result="BackgroundImageFix"/>
<feColorMatrix in="SourceAlpha" type="matrix" values="0 0 0 0 0 0 0 0 0 0 0 0 0 0 0 0 0 0 127 0" result="hardAlpha"/>
<feOffset dy="4"/>
<feGaussianBlur stdDeviation="2"/>
<feComposite in2="hardAlpha" operator="out"/>
<feColorMatrix type="matrix" values="0 0 0 0 0 0 0 0 0 0 0 0 0 0 0 0 0 0 0.25 0"/>
<feBlend mode="normal" in2="BackgroundImageFix" result="effect1_dropShadow_3_77"/>
<feBlend mode="normal" in="SourceGraphic" in2="effect1_dropShadow_3_77" result="shape"/>
</filter>
</defs>
</svg>
