<svg width="94" height="61" viewBox="0 0 94 61" fill="none" xmlns="http://www.w3.org/2000/svg">
<g filter="url(#filter0_d_3_81)">
<rect x="4" width="86" height="53" rx="26.5" fill="#EBCC71"/>
<rect x="4.75" y="0.75" width="84.5" height="51.5" rx="25.75" stroke="black" stroke-width="1.5"/>
</g>
<g filter="url(#filter1_d_3_81)">
<path d="M47.1756 13.4602C48.6074 13.4602 49.9753 13.6946 51.2793 14.1634C52.5833 14.6236 53.7466 15.3608 54.7694 16.375C55.7921 17.3807 56.5975 18.706 57.1855 20.3509C57.7736 21.9957 58.0677 24.0028 58.0677 26.3722C58.0762 28.554 57.8205 30.5099 57.3006 32.2401C56.7807 33.9616 56.035 35.4276 55.0634 36.6378C54.1003 37.848 52.9412 38.7727 51.5861 39.4119C50.231 40.0426 48.7182 40.358 47.0478 40.358C45.2069 40.358 43.5833 40.0043 42.177 39.2969C40.7793 38.581 39.6586 37.6179 38.8148 36.4077C37.9796 35.1974 37.481 33.8423 37.3191 32.3423H43.5449C43.7409 33.2116 44.1543 33.8679 44.785 34.3111C45.4157 34.7457 46.1699 34.9631 47.0478 34.9631C48.65 34.9631 49.8475 34.2685 50.6401 32.8793C51.4327 31.4901 51.829 29.6023 51.829 27.2159H51.6756C51.3091 28 50.7892 28.6733 50.1159 29.2358C49.4512 29.7983 48.6799 30.2287 47.802 30.527C46.9242 30.8253 45.9995 30.9744 45.0279 30.9744C43.4597 30.9744 42.0748 30.6165 40.873 29.9006C39.6799 29.1847 38.7424 28.2003 38.0605 26.9474C37.3873 25.6946 37.0463 24.2628 37.0378 22.652C37.0293 20.8452 37.4512 19.2514 38.3034 17.8707C39.1557 16.4815 40.3446 15.3991 41.8702 14.6236C43.3958 13.8395 45.1642 13.4517 47.1756 13.4602ZM47.214 18.3182C46.4299 18.3182 45.731 18.5014 45.1174 18.8679C44.5123 19.2344 44.035 19.7287 43.6855 20.3509C43.3361 20.973 43.1657 21.6719 43.1742 22.4474C43.1827 23.223 43.3574 23.9219 43.6983 24.544C44.0478 25.1662 44.5208 25.6605 45.1174 26.027C45.7225 26.3935 46.4128 26.5767 47.1884 26.5767C47.7679 26.5767 48.3049 26.4702 48.7992 26.2571C49.2935 26.044 49.7239 25.75 50.0904 25.375C50.4569 24.9915 50.7424 24.5483 50.9469 24.0455C51.16 23.5426 51.2623 23.0057 51.2537 22.4347C51.2452 21.6761 51.0662 20.9858 50.7168 20.3636C50.3674 19.7415 49.8858 19.2472 49.2722 18.8807C48.6671 18.5057 47.981 18.3182 47.214 18.3182Z" fill="white"/>
<path d="M47.1756 13.4602L47.1714 14.4602H47.1756V13.4602ZM51.2793 14.1634L50.941 15.1044L50.9465 15.1063L51.2793 14.1634ZM54.7694 16.375L54.0652 17.0851L54.0682 17.088L54.7694 16.375ZM57.1855 20.3509L56.2439 20.6875L57.1855 20.3509ZM58.0676 26.3722H57.0676L57.0677 26.3761L58.0676 26.3722ZM57.3006 32.2401L58.2579 32.5291L58.2583 32.5278L57.3006 32.2401ZM55.0634 36.6378L54.2836 36.0117L54.2809 36.0151L55.0634 36.6378ZM51.5861 39.4119L52.0081 40.3186L52.0127 40.3164L51.5861 39.4119ZM42.177 39.2969L41.7211 40.1869L41.7276 40.1902L42.177 39.2969ZM38.8148 36.4077L37.9918 36.9757L37.9945 36.9796L38.8148 36.4077ZM37.3191 32.3423V31.3423C37.0352 31.3423 36.7647 31.463 36.575 31.6742C36.3853 31.8855 36.2944 32.1674 36.3248 32.4497L37.3191 32.3423ZM43.5449 32.3423L44.5204 32.1224C44.4176 31.6663 44.0125 31.3423 43.5449 31.3423V32.3423ZM44.785 34.3111L44.21 35.1293L44.2175 35.1345L44.785 34.3111ZM50.6401 32.8793L51.5087 33.3748V33.3748L50.6401 32.8793ZM51.829 27.2159H52.829C52.829 26.6636 52.3813 26.2159 51.829 26.2159V27.2159ZM51.6756 27.2159V26.2159C51.2873 26.2159 50.9341 26.4407 50.7697 26.7925L51.6756 27.2159ZM50.1159 29.2358L49.4748 28.4684L49.47 28.4724L50.1159 29.2358ZM47.802 30.527L47.4803 29.5802H47.4803L47.802 30.527ZM40.873 29.9006L40.3585 30.7581L40.3612 30.7597L40.873 29.9006ZM38.0605 26.9474L37.1797 27.4208L37.1822 27.4255L38.0605 26.9474ZM37.0378 22.652L36.0378 22.6567L36.0378 22.6573L37.0378 22.652ZM38.3034 17.8707L39.1544 18.396L39.1558 18.3937L38.3034 17.8707ZM41.8702 14.6236L42.3234 15.515L42.3273 15.513L41.8702 14.6236ZM45.1174 18.8679L44.6046 18.0093L44.5993 18.0125L45.1174 18.8679ZM43.6855 20.3509L42.8137 19.8612V19.8612L43.6855 20.3509ZM43.1742 22.4474L44.1741 22.4365L43.1742 22.4474ZM43.6983 24.544L42.8213 25.0246L42.8264 25.0337L43.6983 24.544ZM45.1174 26.027L44.5939 26.8791L44.5993 26.8823L45.1174 26.027ZM48.7992 26.2571L49.195 27.1754H49.195L48.7992 26.2571ZM50.0904 25.375L50.8056 26.074L50.8134 26.0659L50.0904 25.375ZM50.9469 24.0455L50.0262 23.6553C50.0243 23.6597 50.0224 23.6642 50.0206 23.6687L50.9469 24.0455ZM51.2537 22.4347L50.2538 22.4459L50.2538 22.4496L51.2537 22.4347ZM50.7168 20.3636L49.8449 20.8533V20.8533L50.7168 20.3636ZM49.2722 18.8807L48.7454 19.7307C48.7501 19.7336 48.7548 19.7364 48.7595 19.7392L49.2722 18.8807ZM47.1756 14.4602C48.496 14.4602 49.7492 14.676 50.941 15.1044L51.6176 13.2223C50.2015 12.7133 48.7188 12.4602 47.1756 12.4602V14.4602ZM50.9465 15.1063C52.1051 15.5153 53.143 16.1706 54.0652 17.0851L55.4735 15.6649C54.3502 14.551 53.0614 13.7319 51.6121 13.2204L50.9465 15.1063ZM54.0682 17.088C54.9626 17.9675 55.6957 19.1542 56.2439 20.6875L58.1272 20.0142C57.4992 18.2577 56.6216 16.7939 55.4705 15.662L54.0682 17.088ZM56.2439 20.6875C56.7823 22.1935 57.0676 24.0794 57.0676 26.3722H59.0676C59.0676 23.9263 58.7649 21.798 58.1272 20.0142L56.2439 20.6875ZM57.0677 26.3761C57.0759 28.4789 56.8292 30.334 56.3429 31.9523L58.2583 32.5278C58.8118 30.6859 59.0765 28.6291 59.0676 26.3683L57.0677 26.3761ZM56.3433 31.951C55.8546 33.5691 55.1633 34.916 54.2836 36.0117L55.8432 37.2638C56.9067 35.9391 57.7068 34.3542 58.2579 32.5291L56.3433 31.951ZM54.2809 36.0151C53.4101 37.1094 52.3714 37.9358 51.1595 38.5075L52.0127 40.3164C53.511 39.6096 54.7905 38.5866 55.8459 37.2605L54.2809 36.0151ZM51.1642 38.5053C49.956 39.0676 48.5897 39.358 47.0478 39.358V41.358C48.8467 41.358 50.506 41.0176 52.0081 40.3186L51.1642 38.5053ZM47.0478 39.358C45.3365 39.358 43.8714 39.0298 42.6264 38.4035L41.7276 40.1902C43.2951 40.9787 45.0772 41.358 47.0478 41.358V39.358ZM42.6329 38.4068C41.3712 37.7606 40.3792 36.9031 39.6351 35.8358L37.9945 36.9796C38.9379 38.3327 40.1874 39.4013 41.7211 40.1869L42.6329 38.4068ZM39.6378 35.8397C38.8996 34.77 38.4579 33.5741 38.3133 32.235L36.3248 32.4497C36.5042 34.1106 37.0595 35.6249 37.9918 36.9757L39.6378 35.8397ZM37.3191 33.3423H43.5449V31.3423H37.3191V33.3423ZM42.5694 32.5623C42.811 33.6335 43.3447 34.5212 44.21 35.1293L45.3599 33.4929C44.9639 33.2146 44.6709 32.7898 44.5204 32.1224L42.5694 32.5623ZM44.2175 35.1345C45.0386 35.7004 45.9978 35.9631 47.0478 35.9631V33.9631C46.342 33.9631 45.7927 33.7911 45.3525 33.4877L44.2175 35.1345ZM47.0478 35.9631C49.0083 35.9631 50.5377 35.0766 51.5087 33.3748L49.7715 32.3837C49.1573 33.4603 48.2917 33.9631 47.0478 33.9631V35.9631ZM51.5087 33.3748C52.4196 31.7782 52.829 29.6968 52.829 27.2159H50.829C50.829 29.5077 50.4458 31.2019 49.7715 32.3837L51.5087 33.3748ZM51.829 26.2159H51.6756V28.2159H51.829V26.2159ZM50.7697 26.7925C50.4661 27.442 50.0373 27.9984 49.4748 28.4684L50.7571 30.0032C51.5412 29.3482 52.1522 28.558 52.5815 27.6393L50.7697 26.7925ZM49.47 28.4724C48.9069 28.9489 48.2473 29.3195 47.4803 29.5802L48.1238 31.4738C49.1125 31.1379 49.9954 30.6477 50.7619 29.9992L49.47 28.4724ZM47.4803 29.5802C46.711 29.8416 45.8953 29.9744 45.0279 29.9744V31.9744C46.1036 31.9744 47.1374 31.809 48.1238 31.4738L47.4803 29.5802ZM45.0279 29.9744C43.6175 29.9744 42.4136 29.6544 41.3849 29.0415L40.3612 30.7597C41.7359 31.5786 43.3019 31.9744 45.0279 31.9744V29.9744ZM41.3875 29.0431C40.3513 28.4213 39.5377 27.5697 38.9389 26.4694L37.1822 27.4255C37.947 28.8309 39.0084 29.948 40.3586 30.7581L41.3875 29.0431ZM38.9414 26.4741C38.3552 25.3833 38.0456 24.116 38.0378 22.6467L36.0378 22.6573C36.0471 24.4096 36.4193 26.0059 37.1797 27.4208L38.9414 26.4741ZM38.0378 22.6473C38.0301 21.0057 38.4113 19.5998 39.1544 18.396L37.4525 17.3455C36.491 18.9031 36.0285 20.6847 36.0378 22.6567L38.0378 22.6473ZM39.1558 18.3937C39.9066 17.1698 40.9537 16.2113 42.3234 15.515L41.417 13.7322C39.7356 14.587 38.4048 15.7932 37.4511 17.3478L39.1558 18.3937ZM42.3273 15.513C43.6875 14.8139 45.2928 14.4523 47.1714 14.4602L47.1798 12.4602C45.0357 12.4511 43.1041 12.8651 41.4131 13.7342L42.3273 15.513ZM47.214 17.3182C46.2674 17.3182 45.3881 17.5415 44.6046 18.0094L45.6301 19.7264C46.0739 19.4614 46.5924 19.3182 47.214 19.3182V17.3182ZM44.5993 18.0125C43.8454 18.4692 43.2468 19.09 42.8137 19.8612L44.5574 20.8405C44.8232 20.3674 45.1791 19.9996 45.6354 19.7233L44.5993 18.0125ZM42.8137 19.8612C42.371 20.6492 42.164 21.5233 42.1742 22.4584L44.1741 22.4365C44.1674 21.8204 44.3012 21.2968 44.5574 20.8405L42.8137 19.8612ZM42.1742 22.4584C42.1844 23.3826 42.3943 24.2452 42.8214 25.0246L44.5753 24.0635C44.3205 23.5985 44.181 23.0634 44.1741 22.4365L42.1742 22.4584ZM42.8264 25.0337C43.2576 25.8014 43.8494 26.4217 44.5939 26.8791L45.6408 25.1749C45.1922 24.8993 44.8379 24.531 44.5702 24.0543L42.8264 25.0337ZM44.5993 26.8823C45.3755 27.3524 46.2483 27.5767 47.1884 27.5767V25.5767C46.5773 25.5767 46.0694 25.4345 45.6354 25.1716L44.5993 26.8823ZM47.1884 27.5767C47.8935 27.5767 48.5663 27.4464 49.195 27.1754L48.4034 25.3388C48.0434 25.4939 47.6424 25.5767 47.1884 25.5767V27.5767ZM49.195 27.1754C49.8058 26.9122 50.3455 26.5447 50.8056 26.0739L49.3752 24.6761C49.1023 24.9553 48.7812 25.1759 48.4034 25.3388L49.195 27.1754ZM50.8134 26.0659C51.2688 25.5892 51.6224 25.0389 51.8732 24.4223L50.0206 23.6687C49.8623 24.0577 49.6449 24.3937 49.3674 24.6841L50.8134 26.0659ZM51.8677 24.4356C52.1375 23.7989 52.2641 23.1233 52.2536 22.4197L50.2538 22.4496C50.2604 22.888 50.1825 23.2864 50.0262 23.6553L51.8677 24.4356ZM52.2537 22.4234C52.2434 21.5081 52.0254 20.6516 51.5887 19.8739L49.8449 20.8533C50.107 21.32 50.247 21.8442 50.2538 22.4459L52.2537 22.4234ZM51.5887 19.8739C51.1536 19.0993 50.5482 18.478 49.7849 18.0221L48.7595 19.7392C49.2235 20.0164 49.5811 20.3836 49.8449 20.8533L51.5887 19.8739ZM49.799 18.0307C49.0234 17.55 48.1521 17.3182 47.214 17.3182V19.3182C47.8099 19.3182 48.3108 19.4613 48.7454 19.7307L49.799 18.0307Z" fill="black"/>
</g>
<defs>
<filter id="filter0_d_3_81" x="0" y="0" width="94" height="61" filterUnits="userSpaceOnUse" color-interpolation-filters="sRGB">
<feFlood flood-opacity="0" result="BackgroundImageFix"/>
<feColorMatrix in="SourceAlpha" type="matrix" values="0 0 0 0 0 0 0 0 0 0 0 0 0 0 0 0 0 0 127 0" result="hardAlpha"/>
<feOffset dy="4"/>
<feGaussianBlur stdDeviation="2"/>
<feComposite in2="hardAlpha" operator="out"/>
<feColorMatrix type="matrix" values="0 0 0 0 0 0 0 0 0 0 0 0 0 0 0 0 0 0 0.25 0"/>
<feBlend mode="normal" in2="BackgroundImageFix" result="effect1_dropShadow_3_81"/>
<feBlend mode="normal" in="SourceGraphic" in2="effect1_dropShadow_3_81" result="shape"/>
</filter>
<filter id="filter1_d_3_81" x="33.025" y="13.4474" width="29.0554" height="34.9105" filterUnits="userSpaceOnUse" color-interpolation-filters="sRGB">
<feFlood flood-opacity="0" result="BackgroundImageFix"/>
<feColorMatrix in="SourceAlpha" type="matrix" values="0 0 0 0 0 0 0 0 0 0 0 0 0 0 0 0 0 0 127 0" result="hardAlpha"/>
<feOffset dy="4"/>
<feGaussianBlur stdDeviation="2"/>
<feComposite in2="hardAlpha" operator="out"/>
<feColorMatrix type="matrix" values="0 0 0 0 0 0 0 0 0 0 0 0 0 0 0 0 0 0 0.25 0"/>
<feBlend mode="normal" in2="BackgroundImageFix" result="effect1_dropShadow_3_81"/>
<feBlend mode="normal" in="SourceGraphic" in2="effect1_dropShadow_3_81" result="shape"/>
</filter>
</defs>
</svg>
