<svg width="94" height="70" viewBox="0 0 94 70" fill="none" xmlns="http://www.w3.org/2000/svg">
<g filter="url(#filter0_d_3_80)">
<rect x="4" y="9" width="86" height="53" rx="26.5" fill="#EBCC71"/>
<rect x="4.75" y="9.75" width="84.5" height="51.5" rx="25.75" stroke="black" stroke-width="1.5"/>
</g>
<g filter="url(#filter1_d_3_80)">
<path d="M46.5178 49.5149C45.2393 49.5149 44.1444 49.0651 43.233 48.1655C42.3333 47.2659 41.8894 46.1768 41.9013 44.8984C41.8894 43.6437 42.3333 42.5724 43.233 41.6847C44.1444 40.785 45.2393 40.3352 46.5178 40.3352C47.7251 40.3352 48.7905 40.785 49.7138 41.6847C50.6489 42.5724 51.1224 43.6437 51.1342 44.8984C51.1224 45.7507 50.8975 46.526 50.4595 47.2244C50.0334 47.9228 49.4711 48.4792 48.7727 48.8935C48.0862 49.3078 47.3345 49.5149 46.5178 49.5149Z" fill="white"/>
<path d="M43.233 48.1655L42.5258 48.8726L42.5305 48.8772L43.233 48.1655ZM41.9013 44.8984L42.9012 44.9077C42.9013 44.9015 42.9013 44.8952 42.9012 44.889L41.9013 44.8984ZM43.233 41.6847L43.9354 42.3964L43.9354 42.3964L43.233 41.6847ZM49.7138 41.6847L49.0159 42.4009L49.0253 42.4099L49.7138 41.6847ZM51.1342 44.8984L52.1341 44.9123C52.1342 44.9046 52.1343 44.8968 52.1342 44.889L51.1342 44.8984ZM50.4595 47.2244L49.6123 46.6931L49.6059 46.7036L50.4595 47.2244ZM48.7727 48.8935L48.2625 48.0334L48.2561 48.0373L48.7727 48.8935ZM46.5178 48.5149C45.5028 48.5149 44.6601 48.169 43.9354 47.4538L42.5305 48.8772C43.6287 49.9612 44.9759 50.5149 46.5178 50.5149V48.5149ZM43.9401 47.4584C43.2313 46.7496 42.8919 45.9192 42.9012 44.9077L40.9013 44.8892C40.887 46.4345 41.4354 47.7821 42.5258 48.8726L43.9401 47.4584ZM42.9012 44.889C42.892 43.9073 43.2269 43.0956 43.9354 42.3964L42.5305 40.9729C41.4398 42.0493 40.8869 43.3801 40.9013 44.9079L42.9012 44.889ZM43.9354 42.3964C44.6601 41.6811 45.5028 41.3352 46.5178 41.3352V39.3352C44.9759 39.3352 43.6287 39.889 42.5305 40.9729L43.9354 42.3964ZM46.5178 41.3352C47.4456 41.3352 48.2654 41.6696 49.0159 42.4009L50.4116 40.9684C49.3156 39.9004 48.0047 39.3352 46.5178 39.3352V41.3352ZM49.0253 42.4099C49.77 43.1169 50.1251 43.9324 50.1343 44.9079L52.1342 44.889C52.1197 43.355 51.5278 42.028 50.4023 40.9594L49.0253 42.4099ZM50.1343 44.8845C50.1249 45.5602 49.9495 46.1554 49.6123 46.6931L51.3067 47.7557C51.8454 46.8967 52.1198 45.9413 52.1341 44.9123L50.1343 44.8845ZM49.6059 46.7036C49.2641 47.2636 48.8194 47.7031 48.2625 48.0334L49.2829 49.7535C50.1229 49.2552 50.8026 48.582 51.3132 47.7453L49.6059 46.7036ZM48.2561 48.0373C47.7284 48.3557 47.156 48.5149 46.5178 48.5149V50.5149C47.5131 50.5149 48.4439 50.2599 49.2894 49.7497L48.2561 48.0373Z" fill="black"/>
</g>
<defs>
<filter id="filter0_d_3_80" x="0" y="9" width="94" height="61" filterUnits="userSpaceOnUse" color-interpolation-filters="sRGB">
<feFlood flood-opacity="0" result="BackgroundImageFix"/>
<feColorMatrix in="SourceAlpha" type="matrix" values="0 0 0 0 0 0 0 0 0 0 0 0 0 0 0 0 0 0 127 0" result="hardAlpha"/>
<feOffset dy="4"/>
<feGaussianBlur stdDeviation="2"/>
<feComposite in2="hardAlpha" operator="out"/>
<feColorMatrix type="matrix" values="0 0 0 0 0 0 0 0 0 0 0 0 0 0 0 0 0 0 0.25 0"/>
<feBlend mode="normal" in2="BackgroundImageFix" result="effect1_dropShadow_3_80"/>
<feBlend mode="normal" in="SourceGraphic" in2="effect1_dropShadow_3_80" result="shape"/>
</filter>
<filter id="filter1_d_3_80" x="37.8835" y="40.3352" width="17.2507" height="17.1797" filterUnits="userSpaceOnUse" color-interpolation-filters="sRGB">
<feFlood flood-opacity="0" result="BackgroundImageFix"/>
<feColorMatrix in="SourceAlpha" type="matrix" values="0 0 0 0 0 0 0 0 0 0 0 0 0 0 0 0 0 0 127 0" result="hardAlpha"/>
<feOffset dy="4"/>
<feGaussianBlur stdDeviation="2"/>
<feComposite in2="hardAlpha" operator="out"/>
<feColorMatrix type="matrix" values="0 0 0 0 0 0 0 0 0 0 0 0 0 0 0 0 0 0 0.25 0"/>
<feBlend mode="normal" in2="BackgroundImageFix" result="effect1_dropShadow_3_80"/>
<feBlend mode="normal" in="SourceGraphic" in2="effect1_dropShadow_3_80" result="shape"/>
</filter>
</defs>
</svg>
