<svg width="94" height="79" viewBox="0 0 94 79" fill="none" xmlns="http://www.w3.org/2000/svg">
<g filter="url(#filter0_d_3_71)">
<rect x="4" y="18" width="86" height="53" rx="26.5" fill="#00746D"/>
<rect x="4.75" y="18.75" width="84.5" height="51.5" rx="25.75" stroke="black" stroke-width="1.5"/>
</g>
<g filter="url(#filter1_d_3_71)">
<path d="M32.2834 49.5149C31.005 49.5149 29.91 49.0651 28.9986 48.1655C28.099 47.2659 27.6551 46.1768 27.6669 44.8984C27.6551 43.6437 28.099 42.5724 28.9986 41.6847C29.91 40.785 31.005 40.3352 32.2834 40.3352C33.4908 40.3352 34.5561 40.785 35.4794 41.6847C36.4145 42.5724 36.888 43.6437 36.8999 44.8984C36.888 45.7507 36.6631 46.526 36.2251 47.2244C35.799 47.9228 35.2367 48.4792 34.5384 48.8935C33.8518 49.3078 33.1001 49.5149 32.2834 49.5149ZM47.5178 49.5149C46.2393 49.5149 45.1444 49.0651 44.233 48.1655C43.3333 47.2659 42.8894 46.1768 42.9013 44.8984C42.8894 43.6437 43.3333 42.5724 44.233 41.6847C45.1444 40.785 46.2393 40.3352 47.5178 40.3352C48.7251 40.3352 49.7905 40.785 50.7138 41.6847C51.6489 42.5724 52.1224 43.6437 52.1342 44.8984C52.1224 45.7507 51.8975 46.526 51.4595 47.2244C51.0334 47.9228 50.4711 48.4792 49.7727 48.8935C49.0862 49.3078 48.3345 49.5149 47.5178 49.5149ZM62.7521 49.5149C61.4737 49.5149 60.3788 49.0651 59.4673 48.1655C58.5677 47.2659 58.1238 46.1768 58.1357 44.8984C58.1238 43.6437 58.5677 42.5724 59.4673 41.6847C60.3788 40.785 61.4737 40.3352 62.7521 40.3352C63.9595 40.3352 65.0249 40.785 65.9482 41.6847C66.8833 42.5724 67.3568 43.6437 67.3686 44.8984C67.3568 45.7507 67.1319 46.526 66.6939 47.2244C66.2678 47.9228 65.7055 48.4792 65.0071 48.8935C64.3205 49.3078 63.5689 49.5149 62.7521 49.5149Z" fill="white"/>
<path d="M28.9986 48.1655L28.2915 48.8726L28.2961 48.8772L28.9986 48.1655ZM27.6669 44.8984L28.6669 44.9077C28.6669 44.9015 28.6669 44.8952 28.6669 44.889L27.6669 44.8984ZM28.9986 41.6847L29.701 42.3964L29.701 42.3964L28.9986 41.6847ZM35.4794 41.6847L34.7815 42.4009L34.7909 42.4099L35.4794 41.6847ZM36.8999 44.8984L37.8998 44.9123C37.8999 44.9046 37.8999 44.8968 37.8998 44.889L36.8999 44.8984ZM36.2251 47.2244L35.3779 46.6931L35.3715 46.7036L36.2251 47.2244ZM34.5384 48.8935L34.0281 48.0334L34.0217 48.0373L34.5384 48.8935ZM32.2834 48.5149C31.2684 48.5149 30.4257 48.169 29.701 47.4538L28.2961 48.8772C29.3943 49.9612 30.7415 50.5149 32.2834 50.5149V48.5149ZM29.7057 47.4584C28.9969 46.7496 28.6575 45.9192 28.6669 44.9077L26.6669 44.8892C26.6526 46.4345 27.201 47.7821 28.2915 48.8726L29.7057 47.4584ZM28.6669 44.889C28.6576 43.9073 28.9925 43.0956 29.701 42.3964L28.2962 40.9729C27.2054 42.0493 26.6525 43.3801 26.6669 44.9079L28.6669 44.889ZM29.701 42.3964C30.4257 41.6811 31.2684 41.3352 32.2834 41.3352V39.3352C30.7415 39.3352 29.3943 39.889 28.2961 40.9729L29.701 42.3964ZM32.2834 41.3352C33.2112 41.3352 34.031 41.6696 34.7815 42.4009L36.1773 40.9684C35.0812 39.9004 33.7703 39.3352 32.2834 39.3352V41.3352ZM34.7909 42.4099C35.5356 43.1169 35.8907 43.9324 35.8999 44.9079L37.8998 44.889C37.8853 43.355 37.2934 42.028 36.1679 40.9594L34.7909 42.4099ZM35.9 44.8845C35.8906 45.5602 35.7152 46.1554 35.378 46.6931L37.0723 47.7557C37.6111 46.8967 37.8855 45.9413 37.8998 44.9123L35.9 44.8845ZM35.3715 46.7036C35.0298 47.2636 34.585 47.7031 34.0282 48.0334L35.0486 49.7535C35.8885 49.2552 36.5682 48.582 37.0788 47.7453L35.3715 46.7036ZM34.0217 48.0373C33.4941 48.3557 32.9216 48.5149 32.2834 48.5149V50.5149C33.2787 50.5149 34.2095 50.2599 35.055 49.7497L34.0217 48.0373ZM44.233 48.1655L43.5258 48.8726L43.5305 48.8772L44.233 48.1655ZM42.9013 44.8984L43.9012 44.9077C43.9013 44.9015 43.9013 44.8952 43.9012 44.889L42.9013 44.8984ZM44.233 41.6847L44.9354 42.3964L44.9354 42.3964L44.233 41.6847ZM50.7138 41.6847L50.0159 42.4009L50.0253 42.4099L50.7138 41.6847ZM52.1342 44.8984L53.1341 44.9123C53.1342 44.9046 53.1343 44.8968 53.1342 44.889L52.1342 44.8984ZM51.4595 47.2244L50.6123 46.6931L50.6059 46.7036L51.4595 47.2244ZM49.7727 48.8935L49.2625 48.0334L49.2561 48.0373L49.7727 48.8935ZM47.5178 48.5149C46.5028 48.5149 45.6601 48.169 44.9354 47.4538L43.5305 48.8772C44.6287 49.9612 45.9759 50.5149 47.5178 50.5149V48.5149ZM44.9401 47.4584C44.2313 46.7496 43.8919 45.9192 43.9012 44.9077L41.9013 44.8892C41.887 46.4345 42.4354 47.7821 43.5258 48.8726L44.9401 47.4584ZM43.9012 44.889C43.892 43.9073 44.2269 43.0956 44.9354 42.3964L43.5305 40.9729C42.4398 42.0493 41.8869 43.3801 41.9013 44.9079L43.9012 44.889ZM44.9354 42.3964C45.6601 41.6811 46.5028 41.3352 47.5178 41.3352V39.3352C45.9759 39.3352 44.6287 39.889 43.5305 40.9729L44.9354 42.3964ZM47.5178 41.3352C48.4456 41.3352 49.2654 41.6696 50.0159 42.4009L51.4116 40.9684C50.3156 39.9004 49.0047 39.3352 47.5178 39.3352V41.3352ZM50.0253 42.4099C50.77 43.1169 51.1251 43.9324 51.1343 44.9079L53.1342 44.889C53.1197 43.355 52.5278 42.028 51.4023 40.9594L50.0253 42.4099ZM51.1343 44.8845C51.1249 45.5602 50.9495 46.1554 50.6123 46.6931L52.3067 47.7557C52.8454 46.8967 53.1198 45.9413 53.1341 44.9123L51.1343 44.8845ZM50.6059 46.7036C50.2641 47.2636 49.8194 47.7031 49.2625 48.0334L50.2829 49.7535C51.1229 49.2552 51.8026 48.582 52.3132 47.7453L50.6059 46.7036ZM49.2561 48.0373C48.7284 48.3557 48.156 48.5149 47.5178 48.5149V50.5149C48.5131 50.5149 49.4439 50.2599 50.2894 49.7497L49.2561 48.0373ZM59.4673 48.1655L58.7602 48.8726L58.7649 48.8772L59.4673 48.1655ZM58.1357 44.8984L59.1356 44.9077C59.1357 44.9015 59.1357 44.8952 59.1356 44.889L58.1357 44.8984ZM59.4673 41.6847L60.1697 42.3964L60.1698 42.3964L59.4673 41.6847ZM65.9482 41.6847L65.2502 42.4009L65.2596 42.4099L65.9482 41.6847ZM67.3686 44.8984L68.3685 44.9123C68.3686 44.9046 68.3686 44.8968 68.3686 44.889L67.3686 44.8984ZM66.6939 47.2244L65.8466 46.6931L65.8403 46.7036L66.6939 47.2244ZM65.0071 48.8935L64.4969 48.0334L64.4904 48.0373L65.0071 48.8935ZM62.7521 48.5149C61.7372 48.5149 60.8945 48.169 60.1698 47.4538L58.7649 48.8772C59.8631 49.9612 61.2103 50.5149 62.7521 50.5149V48.5149ZM60.1744 47.4584C59.4657 46.7496 59.1262 45.9192 59.1356 44.9077L57.1357 44.8892C57.1214 46.4345 57.6698 47.7821 58.7602 48.8726L60.1744 47.4584ZM59.1356 44.889C59.1263 43.9073 59.4613 43.0956 60.1697 42.3964L58.7649 40.9729C57.6741 42.0493 57.1213 43.3801 57.1357 44.9079L59.1356 44.889ZM60.1698 42.3964C60.8945 41.6811 61.7372 41.3352 62.7521 41.3352V39.3352C61.2103 39.3352 59.8631 39.889 58.7649 40.9729L60.1698 42.3964ZM62.7521 41.3352C63.68 41.3352 64.4998 41.6696 65.2503 42.4009L66.646 40.9684C65.5499 39.9004 64.2391 39.3352 62.7521 39.3352V41.3352ZM65.2596 42.4099C66.0044 43.1169 66.3595 43.9324 66.3687 44.9079L68.3686 44.889C68.3541 43.355 67.7622 42.028 66.6367 40.9594L65.2596 42.4099ZM66.3687 44.8845C66.3593 45.5602 66.1839 46.1554 65.8467 46.6931L67.5411 47.7557C68.0798 46.8967 68.3542 45.9413 68.3685 44.9123L66.3687 44.8845ZM65.8403 46.7036C65.4985 47.2636 65.0537 47.7031 64.4969 48.0334L65.5173 49.7535C66.3573 49.2552 67.037 48.582 67.5475 47.7453L65.8403 46.7036ZM64.4904 48.0373C63.9628 48.3557 63.3904 48.5149 62.7521 48.5149V50.5149C63.7474 50.5149 64.6783 50.2599 65.5238 49.7497L64.4904 48.0373Z" fill="black"/>
</g>
<defs>
<filter id="filter0_d_3_71" x="0" y="18" width="94" height="61" filterUnits="userSpaceOnUse" color-interpolation-filters="sRGB">
<feFlood flood-opacity="0" result="BackgroundImageFix"/>
<feColorMatrix in="SourceAlpha" type="matrix" values="0 0 0 0 0 0 0 0 0 0 0 0 0 0 0 0 0 0 127 0" result="hardAlpha"/>
<feOffset dy="4"/>
<feGaussianBlur stdDeviation="2"/>
<feComposite in2="hardAlpha" operator="out"/>
<feColorMatrix type="matrix" values="0 0 0 0 0 0 0 0 0 0 0 0 0 0 0 0 0 0 0.25 0"/>
<feBlend mode="normal" in2="BackgroundImageFix" result="effect1_dropShadow_3_71"/>
<feBlend mode="normal" in="SourceGraphic" in2="effect1_dropShadow_3_71" result="shape"/>
</filter>
<filter id="filter1_d_3_71" x="23.6492" y="40.3352" width="47.7195" height="17.1797" filterUnits="userSpaceOnUse" color-interpolation-filters="sRGB">
<feFlood flood-opacity="0" result="BackgroundImageFix"/>
<feColorMatrix in="SourceAlpha" type="matrix" values="0 0 0 0 0 0 0 0 0 0 0 0 0 0 0 0 0 0 127 0" result="hardAlpha"/>
<feOffset dy="4"/>
<feGaussianBlur stdDeviation="2"/>
<feComposite in2="hardAlpha" operator="out"/>
<feColorMatrix type="matrix" values="0 0 0 0 0 0 0 0 0 0 0 0 0 0 0 0 0 0 0.25 0"/>
<feBlend mode="normal" in2="BackgroundImageFix" result="effect1_dropShadow_3_71"/>
<feBlend mode="normal" in="SourceGraphic" in2="effect1_dropShadow_3_71" result="shape"/>
</filter>
</defs>
</svg>
