<svg width="21" height="35" viewBox="0 0 21 35" fill="none" xmlns="http://www.w3.org/2000/svg">
<g filter="url(#filter0_d_3_40)">
<path d="M16.5897 0.818181V27H10.2743V6.72443H10.1209L4.2658 10.304V4.83239L10.7218 0.818181H16.5897Z" fill="white"/>
<path d="M16.5897 0.818181H17.5897C17.5897 0.265896 17.142 -0.181819 16.5897 -0.181819V0.818181ZM16.5897 27V28C17.142 28 17.5897 27.5523 17.5897 27H16.5897ZM10.2743 27H9.27433C9.27433 27.5523 9.72204 28 10.2743 28V27ZM10.2743 6.72443H11.2743C11.2743 6.17215 10.8266 5.72443 10.2743 5.72443V6.72443ZM10.1209 6.72443V5.72443C9.93685 5.72443 9.75636 5.77523 9.59932 5.87124L10.1209 6.72443ZM4.2658 10.304H3.2658C3.2658 10.6657 3.46118 10.9993 3.77672 11.1762C4.09226 11.3531 4.47876 11.3459 4.7874 11.1572L4.2658 10.304ZM4.2658 4.83239L3.73777 3.98316C3.44427 4.16566 3.2658 4.48677 3.2658 4.83239H4.2658ZM10.7218 0.818181V-0.181819C10.5351 -0.181819 10.3522 -0.129591 10.1937 -0.0310431L10.7218 0.818181ZM15.5897 0.818181V27H17.5897V0.818181H15.5897ZM16.5897 26H10.2743V28H16.5897V26ZM11.2743 27V6.72443H9.27433V27H11.2743ZM10.2743 5.72443H10.1209V7.72443H10.2743V5.72443ZM9.59932 5.87124L3.7442 9.45079L4.7874 11.1572L10.6425 7.57762L9.59932 5.87124ZM5.2658 10.304V4.83239H3.2658V10.304H5.2658ZM4.79383 5.68161L11.2498 1.66741L10.1937 -0.0310431L3.73777 3.98316L4.79383 5.68161ZM10.7218 1.81818H16.5897V-0.181819H10.7218V1.81818Z" fill="black"/>
</g>
<defs>
<filter id="filter0_d_3_40" x="0.2658" y="0.818184" width="20.3239" height="34.1818" filterUnits="userSpaceOnUse" color-interpolation-filters="sRGB">
<feFlood flood-opacity="0" result="BackgroundImageFix"/>
<feColorMatrix in="SourceAlpha" type="matrix" values="0 0 0 0 0 0 0 0 0 0 0 0 0 0 0 0 0 0 127 0" result="hardAlpha"/>
<feOffset dy="4"/>
<feGaussianBlur stdDeviation="2"/>
<feComposite in2="hardAlpha" operator="out"/>
<feColorMatrix type="matrix" values="0 0 0 0 0 0 0 0 0 0 0 0 0 0 0 0 0 0 0.25 0"/>
<feBlend mode="normal" in2="BackgroundImageFix" result="effect1_dropShadow_3_40"/>
<feBlend mode="normal" in="SourceGraphic" in2="effect1_dropShadow_3_40" result="shape"/>
</filter>
</defs>
</svg>
