<svg width="94" height="61" viewBox="0 0 94 61" fill="none" xmlns="http://www.w3.org/2000/svg">
<g filter="url(#filter0_d_3_66)">
<rect x="4" width="86" height="53" rx="26.5" fill="#00746D"/>
<rect x="4.75" y="0.75" width="84.5" height="51.5" rx="25.75" stroke="black" stroke-width="1.5"/>
</g>
<g filter="url(#filter1_d_3_66)">
<path d="M43.636 37.5511V16.983H49.3604V37.5511H43.636ZM36.207 30.1364V24.4119H56.7752V30.1364H36.207Z" fill="white"/>
<path d="M43.636 37.5511H42.636C42.636 38.1034 43.0837 38.5511 43.636 38.5511V37.5511ZM43.636 16.983V15.983C43.0837 15.983 42.636 16.4307 42.636 16.983H43.636ZM49.3604 16.983H50.3604C50.3604 16.4307 49.9127 15.983 49.3604 15.983V16.983ZM49.3604 37.5511V38.5511C49.9127 38.5511 50.3604 38.1034 50.3604 37.5511H49.3604ZM36.207 30.1364H35.207C35.207 30.6886 35.6547 31.1364 36.207 31.1364V30.1364ZM36.207 24.4119V23.4119C35.6547 23.4119 35.207 23.8596 35.207 24.4119H36.207ZM56.7752 24.4119H57.7752C57.7752 23.8596 57.3275 23.4119 56.7752 23.4119V24.4119ZM56.7752 30.1364V31.1364C57.3275 31.1364 57.7752 30.6886 57.7752 30.1364H56.7752ZM44.636 37.5511V16.983H42.636V37.5511H44.636ZM43.636 17.983H49.3604V15.983H43.636V17.983ZM48.3604 16.983V37.5511H50.3604V16.983H48.3604ZM49.3604 36.5511H43.636V38.5511H49.3604V36.5511ZM37.207 30.1364V24.4119H35.207V30.1364H37.207ZM36.207 25.4119H56.7752V23.4119H36.207V25.4119ZM55.7752 24.4119V30.1364H57.7752V24.4119H55.7752ZM56.7752 29.1364H36.207V31.1364H56.7752V29.1364Z" fill="black"/>
</g>
<defs>
<filter id="filter0_d_3_66" x="0" y="0" width="94" height="61" filterUnits="userSpaceOnUse" color-interpolation-filters="sRGB">
<feFlood flood-opacity="0" result="BackgroundImageFix"/>
<feColorMatrix in="SourceAlpha" type="matrix" values="0 0 0 0 0 0 0 0 0 0 0 0 0 0 0 0 0 0 127 0" result="hardAlpha"/>
<feOffset dy="4"/>
<feGaussianBlur stdDeviation="2"/>
<feComposite in2="hardAlpha" operator="out"/>
<feColorMatrix type="matrix" values="0 0 0 0 0 0 0 0 0 0 0 0 0 0 0 0 0 0 0.25 0"/>
<feBlend mode="normal" in2="BackgroundImageFix" result="effect1_dropShadow_3_66"/>
<feBlend mode="normal" in="SourceGraphic" in2="effect1_dropShadow_3_66" result="shape"/>
</filter>
<filter id="filter1_d_3_66" x="32.207" y="16.983" width="28.5682" height="28.5682" filterUnits="userSpaceOnUse" color-interpolation-filters="sRGB">
<feFlood flood-opacity="0" result="BackgroundImageFix"/>
<feColorMatrix in="SourceAlpha" type="matrix" values="0 0 0 0 0 0 0 0 0 0 0 0 0 0 0 0 0 0 127 0" result="hardAlpha"/>
<feOffset dy="4"/>
<feGaussianBlur stdDeviation="2"/>
<feComposite in2="hardAlpha" operator="out"/>
<feColorMatrix type="matrix" values="0 0 0 0 0 0 0 0 0 0 0 0 0 0 0 0 0 0 0.25 0"/>
<feBlend mode="normal" in2="BackgroundImageFix" result="effect1_dropShadow_3_66"/>
<feBlend mode="normal" in="SourceGraphic" in2="effect1_dropShadow_3_66" result="shape"/>
</filter>
</defs>
</svg>
