<svg width="94" height="61" viewBox="0 0 94 61" fill="none" xmlns="http://www.w3.org/2000/svg">
<g filter="url(#filter0_d_3_68)">
<rect x="4" width="86" height="53" rx="26.5" fill="#00746D"/>
<rect x="4.75" y="0.75" width="84.5" height="51.5" rx="25.75" stroke="black" stroke-width="1.5"/>
</g>
<g filter="url(#filter1_d_3_68)">
<path d="M44.4119 35.2727L44.8239 30.017L40.4489 33.0142L38.3608 29.3494L43.1051 27.0909L38.3608 24.8324L40.4489 21.1676L44.8239 24.1648L44.4119 18.9091H48.6023L48.1903 24.1648L52.5653 21.1676L54.6534 24.8324L49.9091 27.0909L54.6534 29.3494L52.5653 33.0142L48.1903 30.017L48.6023 35.2727H44.4119Z" fill="white"/>
<path d="M44.4119 35.2727L43.415 35.1946C43.3932 35.4725 43.4884 35.747 43.6777 35.9516C43.867 36.1563 44.1331 36.2727 44.4119 36.2727V35.2727ZM44.8239 30.017L45.8208 30.0952C45.8509 29.7112 45.6578 29.3441 45.3244 29.1513C44.9909 28.9585 44.5764 28.9744 44.2587 29.1921L44.8239 30.017ZM40.4489 33.0142L39.58 33.5093C39.7184 33.7522 39.9522 33.9261 40.2247 33.9887C40.4971 34.0514 40.7834 33.9972 41.014 33.8392L40.4489 33.0142ZM38.3608 29.3494L37.931 28.4465C37.68 28.566 37.49 28.7846 37.4067 29.0498C37.3234 29.315 37.3543 29.6029 37.4919 29.8445L38.3608 29.3494ZM43.1051 27.0909L43.5349 27.9938C43.8832 27.828 44.1051 27.4767 44.1051 27.0909C44.1051 26.7052 43.8832 26.3538 43.5349 26.188L43.1051 27.0909ZM38.3608 24.8324L37.4919 24.3373C37.3543 24.5789 37.3234 24.8668 37.4067 25.132C37.49 25.3972 37.68 25.6158 37.931 25.7353L38.3608 24.8324ZM40.4489 21.1676L41.014 20.3426C40.7834 20.1846 40.4971 20.1304 40.2247 20.1931C39.9522 20.2558 39.7184 20.4296 39.58 20.6726L40.4489 21.1676ZM44.8239 24.1648L44.2587 24.9898C44.5764 25.2074 44.9909 25.2233 45.3244 25.0305C45.6578 24.8377 45.8509 24.4706 45.8208 24.0866L44.8239 24.1648ZM44.4119 18.9091V17.9091C44.1331 17.9091 43.867 18.0255 43.6777 18.2302C43.4884 18.4349 43.3932 18.7093 43.415 18.9872L44.4119 18.9091ZM48.6023 18.9091L49.5992 18.9872C49.621 18.7093 49.5258 18.4349 49.3365 18.2302C49.1472 18.0255 48.8811 17.9091 48.6023 17.9091V18.9091ZM48.1903 24.1648L47.1934 24.0866C47.1633 24.4706 47.3564 24.8377 47.6898 25.0305C48.0233 25.2233 48.4378 25.2074 48.7555 24.9898L48.1903 24.1648ZM52.5653 21.1676L53.4342 20.6726C53.2958 20.4296 53.062 20.2558 52.7896 20.1931C52.5171 20.1304 52.2308 20.1846 52.0002 20.3426L52.5653 21.1676ZM54.6534 24.8324L55.0832 25.7353C55.3342 25.6158 55.5242 25.3972 55.6075 25.132C55.6908 24.8668 55.6599 24.5789 55.5223 24.3373L54.6534 24.8324ZM49.9091 27.0909L49.4793 26.188C49.131 26.3538 48.9091 26.7052 48.9091 27.0909C48.9091 27.4767 49.131 27.828 49.4793 27.9938L49.9091 27.0909ZM54.6534 29.3494L55.5223 29.8445C55.6599 29.6029 55.6908 29.315 55.6075 29.0498C55.5242 28.7846 55.3342 28.566 55.0832 28.4465L54.6534 29.3494ZM52.5653 33.0142L52.0002 33.8392C52.2308 33.9972 52.5171 34.0514 52.7896 33.9887C53.062 33.9261 53.2958 33.7522 53.4342 33.5093L52.5653 33.0142ZM48.1903 30.017L48.7555 29.1921C48.4378 28.9744 48.0233 28.9585 47.6898 29.1513C47.3564 29.3441 47.1633 29.7112 47.1934 30.0952L48.1903 30.017ZM48.6023 35.2727V36.2727C48.8811 36.2727 49.1472 36.1563 49.3365 35.9516C49.5258 35.747 49.621 35.4725 49.5992 35.1946L48.6023 35.2727ZM45.4089 35.3509L45.8208 30.0952L43.8269 29.9389L43.415 35.1946L45.4089 35.3509ZM44.2587 29.1921L39.8837 32.1892L41.014 33.8392L45.389 30.842L44.2587 29.1921ZM41.3177 32.5192L39.2297 28.8544L37.4919 29.8445L39.58 33.5093L41.3177 32.5192ZM38.7906 30.2523L43.5349 27.9938L42.6753 26.188L37.931 28.4465L38.7906 30.2523ZM43.5349 26.188L38.7906 23.9295L37.931 25.7353L42.6753 27.9938L43.5349 26.188ZM39.2297 25.3274L41.3177 21.6627L39.58 20.6726L37.4919 24.3373L39.2297 25.3274ZM39.8837 21.9926L44.2587 24.9898L45.389 23.3398L41.014 20.3426L39.8837 21.9926ZM45.8208 24.0866L45.4089 18.831L43.415 18.9872L43.8269 24.2429L45.8208 24.0866ZM44.4119 19.9091H48.6023V17.9091H44.4119V19.9091ZM47.6053 18.831L47.1934 24.0866L49.1873 24.2429L49.5992 18.9872L47.6053 18.831ZM48.7555 24.9898L53.1305 21.9926L52.0002 20.3426L47.6252 23.3398L48.7555 24.9898ZM51.6965 21.6627L53.7845 25.3274L55.5223 24.3373L53.4342 20.6726L51.6965 21.6627ZM54.2236 23.9295L49.4793 26.188L50.3389 27.9938L55.0832 25.7353L54.2236 23.9295ZM49.4793 27.9938L54.2236 30.2523L55.0832 28.4465L50.3389 26.188L49.4793 27.9938ZM53.7845 28.8544L51.6965 32.5192L53.4342 33.5093L55.5223 29.8445L53.7845 28.8544ZM53.1305 32.1892L48.7555 29.1921L47.6252 30.842L52.0002 33.8392L53.1305 32.1892ZM47.1934 30.0952L47.6053 35.3509L49.5992 35.1946L49.1873 29.9389L47.1934 30.0952ZM48.6023 34.2727H44.4119V36.2727H48.6023V34.2727Z" fill="black"/>
</g>
<defs>
<filter id="filter0_d_3_68" x="0" y="0" width="94" height="61" filterUnits="userSpaceOnUse" color-interpolation-filters="sRGB">
<feFlood flood-opacity="0" result="BackgroundImageFix"/>
<feColorMatrix in="SourceAlpha" type="matrix" values="0 0 0 0 0 0 0 0 0 0 0 0 0 0 0 0 0 0 127 0" result="hardAlpha"/>
<feOffset dy="4"/>
<feGaussianBlur stdDeviation="2"/>
<feComposite in2="hardAlpha" operator="out"/>
<feColorMatrix type="matrix" values="0 0 0 0 0 0 0 0 0 0 0 0 0 0 0 0 0 0 0.25 0"/>
<feBlend mode="normal" in2="BackgroundImageFix" result="effect1_dropShadow_3_68"/>
<feBlend mode="normal" in="SourceGraphic" in2="effect1_dropShadow_3_68" result="shape"/>
</filter>
<filter id="filter1_d_3_68" x="34.3608" y="18.9091" width="24.2926" height="24.3636" filterUnits="userSpaceOnUse" color-interpolation-filters="sRGB">
<feFlood flood-opacity="0" result="BackgroundImageFix"/>
<feColorMatrix in="SourceAlpha" type="matrix" values="0 0 0 0 0 0 0 0 0 0 0 0 0 0 0 0 0 0 127 0" result="hardAlpha"/>
<feOffset dy="4"/>
<feGaussianBlur stdDeviation="2"/>
<feComposite in2="hardAlpha" operator="out"/>
<feColorMatrix type="matrix" values="0 0 0 0 0 0 0 0 0 0 0 0 0 0 0 0 0 0 0.25 0"/>
<feBlend mode="normal" in2="BackgroundImageFix" result="effect1_dropShadow_3_68"/>
<feBlend mode="normal" in="SourceGraphic" in2="effect1_dropShadow_3_68" result="shape"/>
</filter>
</defs>
</svg>
