<svg width="94" height="61" viewBox="0 0 94 61" fill="none" xmlns="http://www.w3.org/2000/svg">
<g filter="url(#filter0_d_3_69)">
<rect x="4" width="86" height="53" rx="26.5" fill="#00746D"/>
<rect x="4.75" y="0.75" width="84.5" height="51.5" rx="25.75" stroke="black" stroke-width="1.5"/>
</g>
<g filter="url(#filter1_d_3_69)">
<path d="M53.3762 12.5909L44.9387 43.9375H39.6078L48.0453 12.5909H53.3762Z" fill="white"/>
<path d="M53.3762 12.5909L54.3419 12.8508C54.4227 12.5504 54.3592 12.2295 54.1699 11.9826C53.9807 11.7357 53.6873 11.5909 53.3762 11.5909V12.5909ZM44.9387 43.9375V44.9375C45.3909 44.9375 45.7868 44.6341 45.9044 44.1974L44.9387 43.9375ZM39.6078 43.9375L38.6421 43.6776C38.5613 43.978 38.6248 44.2989 38.8141 44.5458C39.0033 44.7927 39.2967 44.9375 39.6078 44.9375V43.9375ZM48.0453 12.5909V11.5909C47.5931 11.5909 47.1972 11.8943 47.0796 12.331L48.0453 12.5909ZM52.4106 12.331L43.9731 43.6776L45.9044 44.1974L54.3419 12.8508L52.4106 12.331ZM44.9387 42.9375H39.6078V44.9375H44.9387V42.9375ZM40.5734 44.1974L49.0109 12.8508L47.0796 12.331L38.6421 43.6776L40.5734 44.1974ZM48.0453 13.5909H53.3762V11.5909H48.0453V13.5909Z" fill="black"/>
</g>
<defs>
<filter id="filter0_d_3_69" x="0" y="0" width="94" height="61" filterUnits="userSpaceOnUse" color-interpolation-filters="sRGB">
<feFlood flood-opacity="0" result="BackgroundImageFix"/>
<feColorMatrix in="SourceAlpha" type="matrix" values="0 0 0 0 0 0 0 0 0 0 0 0 0 0 0 0 0 0 127 0" result="hardAlpha"/>
<feOffset dy="4"/>
<feGaussianBlur stdDeviation="2"/>
<feComposite in2="hardAlpha" operator="out"/>
<feColorMatrix type="matrix" values="0 0 0 0 0 0 0 0 0 0 0 0 0 0 0 0 0 0 0.25 0"/>
<feBlend mode="normal" in2="BackgroundImageFix" result="effect1_dropShadow_3_69"/>
<feBlend mode="normal" in="SourceGraphic" in2="effect1_dropShadow_3_69" result="shape"/>
</filter>
<filter id="filter1_d_3_69" x="35.6078" y="12.5909" width="21.7685" height="39.3466" filterUnits="userSpaceOnUse" color-interpolation-filters="sRGB">
<feFlood flood-opacity="0" result="BackgroundImageFix"/>
<feColorMatrix in="SourceAlpha" type="matrix" values="0 0 0 0 0 0 0 0 0 0 0 0 0 0 0 0 0 0 127 0" result="hardAlpha"/>
<feOffset dy="4"/>
<feGaussianBlur stdDeviation="2"/>
<feComposite in2="hardAlpha" operator="out"/>
<feColorMatrix type="matrix" values="0 0 0 0 0 0 0 0 0 0 0 0 0 0 0 0 0 0 0.25 0"/>
<feBlend mode="normal" in2="BackgroundImageFix" result="effect1_dropShadow_3_69"/>
<feBlend mode="normal" in="SourceGraphic" in2="effect1_dropShadow_3_69" result="shape"/>
</filter>
</defs>
</svg>
