<svg width="94" height="61" viewBox="0 0 94 61" fill="none" xmlns="http://www.w3.org/2000/svg">
<g filter="url(#filter0_d_4_19)">
<rect x="4" width="86" height="53" rx="26.5" fill="#005F74" fill-opacity="0.79" shape-rendering="crispEdges"/>
<rect x="4.75" y="0.75" width="84.5" height="51.5" rx="25.75" stroke="black" stroke-width="1.5" shape-rendering="crispEdges"/>
</g>
<g filter="url(#filter1_d_4_19)">
<path d="M47.25 33.6364V32.4091C47.25 31.4545 47.4545 30.572 47.8636 29.7614C48.2803 28.9508 48.8826 28.2992 49.6705 27.8068C50.4583 27.3144 51.4205 27.0682 52.5568 27.0682C53.7159 27.0682 54.6894 27.3144 55.4773 27.8068C56.2727 28.2917 56.8712 28.9394 57.2727 29.75C57.6818 30.553 57.8864 31.4394 57.8864 32.4091V33.6364C57.8864 34.5909 57.6818 35.4735 57.2727 36.2841C56.8636 37.0947 56.2614 37.7462 55.4659 38.2386C54.6705 38.7311 53.7008 38.9773 52.5568 38.9773C51.4053 38.9773 50.4356 38.7311 49.6477 38.2386C48.8598 37.7462 48.2614 37.0947 47.8523 36.2841C47.4508 35.4735 47.25 34.5909 47.25 33.6364ZM50.875 32.4091V33.6364C50.875 34.1212 50.9924 34.5871 51.2273 35.0341C51.4697 35.4811 51.9129 35.7045 52.5568 35.7045C53.2159 35.7045 53.6591 35.4886 53.8864 35.0568C54.1136 34.6174 54.2273 34.1439 54.2273 33.6364V32.4091C54.2273 31.9015 54.1174 31.4242 53.8977 30.9773C53.6856 30.5227 53.2386 30.2955 52.5568 30.2955C51.9205 30.2955 51.4811 30.5227 51.2386 30.9773C50.9962 31.4242 50.875 31.9015 50.875 32.4091ZM35.1818 20.3182V19.0909C35.1818 18.1212 35.3902 17.2348 35.8068 16.4318C36.2311 15.6212 36.8371 14.9735 37.625 14.4886C38.4129 13.9962 39.3674 13.75 40.4886 13.75C41.6477 13.75 42.6212 13.9962 43.4091 14.4886C44.2045 14.9735 44.8068 15.6212 45.2159 16.4318C45.625 17.2348 45.8295 18.1212 45.8295 19.0909V20.3182C45.8295 21.2879 45.6212 22.1742 45.2045 22.9773C44.7955 23.7803 44.1932 24.4205 43.3977 24.8977C42.6023 25.375 41.6326 25.6136 40.4886 25.6136C39.3447 25.6136 38.375 25.3712 37.5795 24.8864C36.7917 24.4015 36.1932 23.7576 35.7841 22.9545C35.3826 22.1515 35.1818 21.2727 35.1818 20.3182ZM38.8409 19.0909V20.3182C38.8409 20.8258 38.9583 21.2992 39.1932 21.7386C39.4356 22.1705 39.8674 22.3864 40.4886 22.3864C41.1553 22.3864 41.5985 22.1705 41.8182 21.7386C42.0455 21.2992 42.1591 20.8258 42.1591 20.3182V19.0909C42.1591 18.5833 42.053 18.1061 41.8409 17.6591C41.6288 17.2045 41.178 16.9773 40.4886 16.9773C39.8523 16.9773 39.4167 17.2083 39.1818 17.6705C38.9545 18.1326 38.8409 18.6061 38.8409 19.0909ZM36.8977 38L52.8977 14.7273H56L40 38H36.8977Z" fill="white"/>
<path d="M47.8636 29.7614L46.9742 29.3042L46.9709 29.3108L47.8636 29.7614ZM49.6705 27.8068L50.2005 28.6548L49.6705 27.8068ZM55.4773 27.8068L54.9472 28.6549L54.9568 28.6607L55.4773 27.8068ZM57.2727 29.75L56.3766 30.1939L56.3817 30.2039L57.2727 29.75ZM47.8523 36.2841L46.9562 36.728L46.9595 36.7346L47.8523 36.2841ZM51.2273 35.0341L50.342 35.4993L50.3482 35.5109L51.2273 35.0341ZM53.8864 35.0568L54.7713 35.5226L54.7746 35.5162L53.8864 35.0568ZM53.8977 30.9773L52.9915 31.4002C52.9944 31.4063 52.9973 31.4123 53.0003 31.4184L53.8977 30.9773ZM51.2386 30.9773L52.1177 31.454L52.121 31.4479L51.2386 30.9773ZM35.8068 16.4318L34.9208 15.9681L34.9192 15.9713L35.8068 16.4318ZM37.625 14.4886L38.1491 15.3403L38.155 15.3366L37.625 14.4886ZM43.4091 14.4886L42.8791 15.3367L42.8886 15.3425L43.4091 14.4886ZM45.2159 16.4318L44.3232 16.8824L44.3249 16.8857L45.2159 16.4318ZM45.2045 22.9773L44.3169 22.5167L44.3135 22.5233L45.2045 22.9773ZM43.3977 24.8977L43.9122 25.7552L43.3977 24.8977ZM37.5795 24.8864L37.0554 25.738L37.0591 25.7402L37.5795 24.8864ZM35.7841 22.9545L34.8896 23.4018L34.8931 23.4085L35.7841 22.9545ZM39.1932 21.7386L38.3113 22.21C38.3145 22.2161 38.3178 22.2222 38.3212 22.2282L39.1932 21.7386ZM41.8182 21.7386L40.9299 21.2792L40.9269 21.2852L41.8182 21.7386ZM41.8409 17.6591L40.9347 18.082L40.9375 18.0878L41.8409 17.6591ZM39.1818 17.6705L38.2903 17.2174L38.2845 17.2291L39.1818 17.6705ZM36.8977 38L36.0737 37.4335C35.8633 37.7395 35.8398 38.1369 36.0127 38.4655C36.1856 38.7942 36.5264 39 36.8977 39V38ZM52.8977 14.7273V13.7273C52.5684 13.7273 52.2602 13.8894 52.0737 14.1607L52.8977 14.7273ZM56 14.7273L56.824 15.2938C57.0344 14.9878 57.0579 14.5904 56.885 14.2617C56.7121 13.9331 56.3714 13.7273 56 13.7273V14.7273ZM40 38V39C40.3293 39 40.6375 38.8379 40.824 38.5665L40 38ZM48.25 33.6364V32.4091H46.25V33.6364H48.25ZM48.25 32.4091C48.25 31.6028 48.4214 30.8756 48.7564 30.2119L46.9709 29.3108C46.4877 30.2683 46.25 31.3063 46.25 32.4091H48.25ZM48.753 30.2185C49.0856 29.5714 49.5623 29.0537 50.2005 28.6548L49.1405 26.9588C48.2029 27.5448 47.475 28.3301 46.9743 29.3042L48.753 30.2185ZM50.2005 28.6548C50.7973 28.2818 51.566 28.0682 52.5568 28.0682V26.0682C51.2749 26.0682 50.1194 26.347 49.1405 26.9588L50.2005 28.6548ZM52.5568 28.0682C53.5747 28.0682 54.3534 28.2837 54.9473 28.6548L56.0073 26.9588C55.0254 26.3451 53.8571 26.0682 52.5568 26.0682V28.0682ZM54.9568 28.6607C55.5959 29.0502 56.0616 29.5579 56.3766 30.1939L58.1688 29.3061C57.6808 28.3208 56.9496 27.5331 55.9977 26.9529L54.9568 28.6607ZM56.3817 30.2039C56.7138 30.8558 56.8864 31.5849 56.8864 32.4091H58.8864C58.8864 31.2939 58.6498 30.2502 58.1638 29.2961L56.3817 30.2039ZM56.8864 32.4091V33.6364H58.8864V32.4091H56.8864ZM56.8864 33.6364C56.8864 34.4427 56.7149 35.1698 56.38 35.8335L58.1655 36.7346C58.6487 35.7771 58.8864 34.7392 58.8864 33.6364H56.8864ZM56.38 35.8335C56.0565 36.4745 55.5834 36.9898 54.9396 37.3884L55.9923 39.0889C56.9393 38.5026 57.6708 37.7149 58.1655 36.7346L56.38 35.8335ZM54.9396 37.3884C54.3341 37.7632 53.5563 37.9773 52.5568 37.9773V39.9773C53.8452 39.9773 55.0068 39.699 55.9923 39.0889L54.9396 37.3884ZM52.5568 37.9773C51.5479 37.9773 50.7726 37.7624 50.1777 37.3906L49.1177 39.0866C50.0987 39.6997 51.2627 39.9773 52.5568 39.9773V37.9773ZM50.1777 37.3906C49.541 36.9927 49.0698 36.4771 48.745 35.8335L46.9595 36.7346C47.4529 37.7123 48.1787 38.4997 49.1177 39.0866L50.1777 37.3906ZM48.7484 35.8402C48.419 35.1752 48.25 34.4457 48.25 33.6364H46.25C46.25 34.7362 46.4825 35.7718 46.9562 36.728L48.7484 35.8402ZM49.875 32.4091V33.6364H51.875V32.4091H49.875ZM49.875 33.6364C49.875 34.2901 50.035 34.9149 50.342 35.4992L52.1125 34.569C51.9498 34.2593 51.875 33.9524 51.875 33.6364H49.875ZM50.3482 35.5109C50.8141 36.3699 51.6607 36.7045 52.5568 36.7045V34.7045C52.3463 34.7045 52.2385 34.6676 52.1917 34.644C52.1568 34.6264 52.1329 34.6063 52.1063 34.5573L50.3482 35.5109ZM52.5568 36.7045C53.4371 36.7045 54.3109 36.3974 54.7713 35.5226L53.0014 34.5911C52.988 34.6166 52.978 34.6278 52.9456 34.6436C52.8983 34.6666 52.7834 34.7045 52.5568 34.7045V36.7045ZM54.7746 35.5162C55.0773 34.9311 55.2273 34.2995 55.2273 33.6364H53.2273C53.2273 33.9884 53.15 34.3038 52.9981 34.5974L54.7746 35.5162ZM55.2273 33.6364V32.4091H53.2273V33.6364H55.2273ZM55.2273 32.4091C55.2273 31.7516 55.0837 31.1231 54.7952 30.5362L53.0003 31.4184C53.1512 31.7254 53.2273 32.0514 53.2273 32.4091H55.2273ZM54.8039 30.5544C54.3679 29.62 53.463 29.2955 52.5568 29.2955V31.2955C52.7941 31.2955 52.9083 31.336 52.9502 31.3573C52.9688 31.3668 52.9746 31.373 52.9756 31.374C52.9766 31.375 52.9827 31.3811 52.9915 31.4002L54.8039 30.5544ZM52.5568 29.2955C51.6543 29.2955 50.8162 29.6443 50.3563 30.5067L52.121 31.4479C52.151 31.3916 52.1775 31.3706 52.2094 31.3541C52.2523 31.3319 52.3541 31.2955 52.5568 31.2955V29.2955ZM50.3596 30.5005C50.0379 31.0936 49.875 31.7347 49.875 32.4091H51.875C51.875 32.0683 51.9545 31.7549 52.1177 31.454L50.3596 30.5005ZM36.1818 20.3182V19.0909H34.1818V20.3182H36.1818ZM36.1818 19.0909C36.1818 18.2697 36.3569 17.543 36.6944 16.8924L34.9192 15.9713C34.4234 16.9267 34.1818 17.9727 34.1818 19.0909H36.1818ZM36.6928 16.8955C37.0326 16.2463 37.5128 15.7319 38.1491 15.3403L37.1009 13.637C36.1615 14.2151 35.4295 14.9961 34.9208 15.9681L36.6928 16.8955ZM38.155 15.3366C38.7538 14.9624 39.5158 14.75 40.4886 14.75V12.75C39.219 12.75 38.0719 13.0301 37.095 13.6406L38.155 15.3366ZM40.4886 14.75C41.5065 14.75 42.2852 14.9655 42.8791 15.3366L43.9391 13.6406C42.9572 13.0269 41.7889 12.75 40.4886 12.75V14.75ZM42.8886 15.3425C43.5292 15.7329 44.0004 16.2428 44.3232 16.8824L46.1087 15.9813C45.6133 14.9996 44.8799 14.214 43.9296 13.6348L42.8886 15.3425ZM44.3249 16.8857C44.657 17.5376 44.8295 18.2667 44.8295 19.0909H46.8295C46.8295 17.9757 46.593 16.9321 46.1069 15.9779L44.3249 16.8857ZM44.8295 19.0909V20.3182H46.8295V19.0909H44.8295ZM44.8295 20.3182C44.8295 21.1394 44.6545 21.8661 44.3169 22.5167L46.0922 23.4378C46.5879 22.4824 46.8295 21.4364 46.8295 20.3182H44.8295ZM44.3135 22.5233C43.9922 23.1541 43.5228 23.6565 42.8832 24.0402L43.9122 25.7552C44.8636 25.1844 45.5987 24.4065 46.0956 23.4312L44.3135 22.5233ZM42.8832 24.0402C42.2757 24.4048 41.4934 24.6136 40.4886 24.6136V26.6136C41.7717 26.6136 42.9288 26.3452 43.9122 25.7552L42.8832 24.0402ZM40.4886 24.6136C39.4865 24.6136 38.7065 24.4021 38.1 24.0325L37.0591 25.7402C38.0435 26.3403 39.2029 26.6136 40.4886 26.6136V24.6136ZM38.1036 24.0347C37.4679 23.6435 36.9985 23.1354 36.6751 22.5006L34.8931 23.4085C35.3879 24.3798 36.1154 25.1595 37.0554 25.738L38.1036 24.0347ZM36.6785 22.5073C36.3508 21.8519 36.1818 21.1275 36.1818 20.3182H34.1818C34.1818 21.4179 34.4144 22.4512 34.8897 23.4018L36.6785 22.5073ZM37.8409 19.0909V20.3182H39.8409V19.0909H37.8409ZM37.8409 20.3182C37.8409 20.987 37.9974 21.6228 38.3113 22.21L40.0751 21.2673C39.9193 20.9757 39.8409 20.6645 39.8409 20.3182H37.8409ZM38.3212 22.2282C38.7877 23.0591 39.6134 23.3864 40.4886 23.3864V21.3864C40.2902 21.3864 40.1891 21.3515 40.1461 21.33C40.1139 21.3139 40.0911 21.2954 40.0652 21.2491L38.3212 22.2282ZM40.4886 23.3864C41.3686 23.3864 42.2561 23.0833 42.7095 22.1921L40.9269 21.2852C40.9175 21.3036 40.9128 21.3109 40.8831 21.3254C40.8372 21.3478 40.721 21.3864 40.4886 21.3864V23.3864ZM42.7064 22.1981C43.0091 21.6129 43.1591 20.9813 43.1591 20.3182H41.1591C41.1591 20.6702 41.0818 20.9856 40.93 21.2792L42.7064 22.1981ZM43.1591 20.3182V19.0909H41.1591V20.3182H43.1591ZM43.1591 19.0909C43.1591 18.439 43.0217 17.8148 42.7443 17.2303L40.9375 18.0878C41.0843 18.3973 41.1591 18.7277 41.1591 19.0909H43.1591ZM42.7471 17.2362C42.3091 16.2977 41.3962 15.9773 40.4886 15.9773V17.9773C40.7312 17.9773 40.8493 18.0183 40.8935 18.0406C40.9132 18.0506 40.9193 18.0571 40.9201 18.0579C40.9208 18.0586 40.9264 18.0641 40.9347 18.082L42.7471 17.2362ZM40.4886 15.9773C39.5787 15.9773 38.7378 16.3369 38.2903 17.2174L40.0733 18.1235C40.1025 18.066 40.127 18.0479 40.1533 18.034C40.1909 18.014 40.2877 17.9773 40.4886 17.9773V15.9773ZM38.2845 17.2291C37.994 17.8198 37.8409 18.4436 37.8409 19.0909H39.8409C39.8409 18.7685 39.9151 18.4453 40.0792 18.1118L38.2845 17.2291ZM37.7218 38.5665L53.7218 15.2938L52.0737 14.1607L36.0737 37.4335L37.7218 38.5665ZM52.8977 15.7273H56V13.7273H52.8977V15.7273ZM55.176 14.1607L39.176 37.4335L40.824 38.5665L56.824 15.2938L55.176 14.1607ZM40 37H36.8977V39H40V37Z" fill="black"/>
</g>
<defs>
<filter id="filter0_d_4_19" x="0" y="0" width="94" height="61" filterUnits="userSpaceOnUse" color-interpolation-filters="sRGB">
<feFlood flood-opacity="0" result="BackgroundImageFix"/>
<feColorMatrix in="SourceAlpha" type="matrix" values="0 0 0 0 0 0 0 0 0 0 0 0 0 0 0 0 0 0 127 0" result="hardAlpha"/>
<feOffset dy="4"/>
<feGaussianBlur stdDeviation="2"/>
<feComposite in2="hardAlpha" operator="out"/>
<feColorMatrix type="matrix" values="0 0 0 0 0 0 0 0 0 0 0 0 0 0 0 0 0 0 0.25 0"/>
<feBlend mode="normal" in2="BackgroundImageFix" result="effect1_dropShadow_4_19"/>
<feBlend mode="normal" in="SourceGraphic" in2="effect1_dropShadow_4_19" result="shape"/>
</filter>
<filter id="filter1_d_4_19" x="31.1818" y="13.75" width="30.7045" height="33.2273" filterUnits="userSpaceOnUse" color-interpolation-filters="sRGB">
<feFlood flood-opacity="0" result="BackgroundImageFix"/>
<feColorMatrix in="SourceAlpha" type="matrix" values="0 0 0 0 0 0 0 0 0 0 0 0 0 0 0 0 0 0 127 0" result="hardAlpha"/>
<feOffset dy="4"/>
<feGaussianBlur stdDeviation="2"/>
<feComposite in2="hardAlpha" operator="out"/>
<feColorMatrix type="matrix" values="0 0 0 0 0 0 0 0 0 0 0 0 0 0 0 0 0 0 0.25 0"/>
<feBlend mode="normal" in2="BackgroundImageFix" result="effect1_dropShadow_4_19"/>
<feBlend mode="normal" in="SourceGraphic" in2="effect1_dropShadow_4_19" result="shape"/>
</filter>
</defs>
</svg>
