<svg width="94" height="61" viewBox="0 0 94 61" fill="none" xmlns="http://www.w3.org/2000/svg">
<g filter="url(#filter0_d_3_86)">
<rect x="4" width="86" height="53" rx="26.5" fill="#2E7989"/>
<rect x="4.75" y="0.75" width="84.5" height="51.5" rx="25.75" stroke="black" stroke-width="1.5"/>
</g>
<g filter="url(#filter1_d_3_86)">
<path d="M31.4 37H25.7324L33.0939 15.1818H40.1145L47.476 37H41.8084L36.6841 20.679H36.5137L31.4 37ZM30.6436 28.4134H42.4902V32.419H30.6436V28.4134ZM68.6044 23.0866H63.2777C63.2067 22.5398 63.0611 22.0462 62.8409 21.6058C62.6207 21.1655 62.3295 20.7891 61.9673 20.4766C61.6051 20.1641 61.1754 19.9261 60.6783 19.7628C60.1882 19.5923 59.6449 19.5071 59.0483 19.5071C57.9901 19.5071 57.0774 19.7663 56.3104 20.2848C55.5504 20.8033 54.9645 21.5526 54.5526 22.5327C54.1477 23.5128 53.9453 24.6989 53.9453 26.0909C53.9453 27.5398 54.1513 28.7543 54.5632 29.7344C54.9822 30.7074 55.5682 31.4425 56.321 31.9396C57.081 32.4297 57.9794 32.6747 59.0163 32.6747C59.5987 32.6747 60.1278 32.6001 60.6037 32.451C61.0866 32.3018 61.5092 32.0852 61.8714 31.8011C62.2408 31.5099 62.5426 31.1584 62.777 30.7464C63.0185 30.3274 63.1854 29.8551 63.2777 29.3295L68.6044 29.3615C68.5121 30.3274 68.2315 31.2791 67.7628 32.2166C67.3011 33.1541 66.6655 34.0099 65.8558 34.7841C65.0462 35.5511 64.0589 36.1619 62.8942 36.6165C61.7365 37.071 60.4084 37.2983 58.9098 37.2983C56.9354 37.2983 55.1669 36.8651 53.6044 35.9986C52.049 35.125 50.8203 33.8537 49.9183 32.1847C49.0163 30.5156 48.5653 28.4844 48.5653 26.0909C48.5653 23.6903 49.0234 21.6555 49.9396 19.9865C50.8558 18.3175 52.0952 17.0497 53.6577 16.1832C55.2202 15.3168 56.9709 14.8835 58.9098 14.8835C60.2308 14.8835 61.4524 15.0682 62.5746 15.4375C63.6967 15.7997 64.6839 16.3324 65.5362 17.0355C66.3885 17.7315 67.081 18.5874 67.6136 19.603C68.1463 20.6186 68.4766 21.7798 68.6044 23.0866Z" fill="white"/>
<path d="M31.4 37V38C31.8371 38 32.2236 37.7161 32.3543 37.299L31.4 37ZM25.7324 37L24.7849 36.6803C24.6819 36.9855 24.7323 37.3216 24.9201 37.5832C25.108 37.8449 25.4103 38 25.7324 38V37ZM33.0939 15.1818V14.1818C32.6648 14.1818 32.2836 14.4556 32.1464 14.8621L33.0939 15.1818ZM40.1145 15.1818L41.062 14.8621C40.9249 14.4556 40.5436 14.1818 40.1145 14.1818V15.1818ZM47.476 37V38C47.7981 38 48.1005 37.8449 48.2883 37.5832C48.4762 37.3216 48.5265 36.9855 48.4235 36.6803L47.476 37ZM41.8084 37L40.8543 37.2996C40.9852 37.7164 41.3715 38 41.8084 38V37ZM36.6841 20.679L37.6382 20.3794C37.5073 19.9626 37.121 19.679 36.6841 19.679V20.679ZM36.5137 20.679V19.679C36.0766 19.679 35.6901 19.9629 35.5594 20.38L36.5137 20.679ZM30.6436 28.4134V27.4134C30.0914 27.4134 29.6436 27.8611 29.6436 28.4134H30.6436ZM42.4902 28.4134H43.4902C43.4902 27.8611 43.0425 27.4134 42.4902 27.4134V28.4134ZM42.4902 32.419V33.419C43.0425 33.419 43.4902 32.9713 43.4902 32.419H42.4902ZM30.6436 32.419H29.6436C29.6436 32.9713 30.0914 33.419 30.6436 33.419V32.419ZM31.4 36H25.7324V38H31.4V36ZM26.6799 37.3197L34.0414 15.5015L32.1464 14.8621L24.7849 36.6803L26.6799 37.3197ZM33.0939 16.1818H40.1145V14.1818H33.0939V16.1818ZM39.167 15.5015L46.5285 37.3197L48.4235 36.6803L41.062 14.8621L39.167 15.5015ZM47.476 36H41.8084V38H47.476V36ZM42.7625 36.7004L37.6382 20.3794L35.73 20.9785L40.8543 37.2996L42.7625 36.7004ZM36.6841 19.679H36.5137V21.679H36.6841V19.679ZM35.5594 20.38L30.4458 36.701L32.3543 37.299L37.4679 20.978L35.5594 20.38ZM30.6436 29.4134H42.4902V27.4134H30.6436V29.4134ZM41.4902 28.4134V32.419H43.4902V28.4134H41.4902ZM42.4902 31.419H30.6436V33.419H42.4902V31.419ZM31.6436 32.419V28.4134H29.6436V32.419H31.6436ZM68.6044 23.0866V24.0866C68.8866 24.0866 69.1556 23.9674 69.3451 23.7584C69.5347 23.5494 69.6271 23.2701 69.5997 22.9893L68.6044 23.0866ZM63.2777 23.0866L62.286 23.2154C62.3507 23.7137 62.7752 24.0866 63.2777 24.0866V23.0866ZM62.8409 21.6058L61.9465 22.053L61.9465 22.053L62.8409 21.6058ZM61.9673 20.4766L62.6206 19.7194L61.9673 20.4766ZM60.6783 19.7628L60.3497 20.7073C60.3552 20.7092 60.3606 20.711 60.3661 20.7128L60.6783 19.7628ZM56.3104 20.2848L55.7504 19.4563L55.7468 19.4587L56.3104 20.2848ZM54.5526 22.5327L53.6307 22.1452L53.6283 22.1509L54.5526 22.5327ZM54.5632 29.7344L53.6413 30.1218L53.6448 30.1299L54.5632 29.7344ZM56.321 31.9396L55.7699 32.7741L55.7791 32.78L56.321 31.9396ZM60.6037 32.451L60.3086 31.4955L60.3046 31.4968L60.6037 32.451ZM61.8714 31.8011L62.4886 32.588L62.4906 32.5864L61.8714 31.8011ZM62.777 30.7464L61.9105 30.2471L61.9078 30.2519L62.777 30.7464ZM63.2777 29.3295L63.2837 28.3296C62.7959 28.3266 62.3772 28.6761 62.2928 29.1565L63.2777 29.3295ZM68.6044 29.3615L69.5999 29.4567C69.6266 29.1772 69.5346 28.8994 69.3464 28.6911C69.1582 28.4828 68.8911 28.3632 68.6104 28.3615L68.6044 29.3615ZM67.7628 32.2166L66.8683 31.7694L66.8657 31.7749L67.7628 32.2166ZM65.8558 34.7841L66.5436 35.5101L66.5469 35.5069L65.8558 34.7841ZM62.8942 36.6165L62.5306 35.6849L62.5287 35.6857L62.8942 36.6165ZM53.6044 35.9986L53.1147 36.8705L53.1194 36.8731L53.6044 35.9986ZM49.9183 32.1847L50.7981 31.7092L49.9183 32.1847ZM49.9396 19.9865L49.063 19.5053L49.9396 19.9865ZM62.5746 15.4375L62.262 16.3874L62.2674 16.3892L62.5746 15.4375ZM65.5362 17.0355L64.8998 17.8069L64.9037 17.81L65.5362 17.0355ZM68.6044 22.0866H63.2777V24.0866H68.6044V22.0866ZM64.2694 22.9579C64.1857 22.3133 64.0111 21.7102 63.7353 21.1586L61.9465 22.053C62.111 22.3822 62.2277 22.7662 62.286 23.2154L64.2694 22.9579ZM63.7353 21.1586C63.4578 20.6035 63.0858 20.1208 62.6206 19.7194L61.3141 21.2337C61.5733 21.4573 61.7837 21.7274 61.9465 22.053L63.7353 21.1586ZM62.6206 19.7194C62.1495 19.313 61.601 19.0134 60.9904 18.8128L60.3661 20.7128C60.7498 20.8389 61.0608 21.0152 61.3141 21.2337L62.6206 19.7194ZM61.0068 18.8183C60.3966 18.606 59.7403 18.5071 59.0483 18.5071V20.5071C59.5495 20.5071 59.9798 20.5786 60.3497 20.7073L61.0068 18.8183ZM59.0483 18.5071C57.8199 18.5071 56.7056 18.8106 55.7504 19.4563L56.8704 21.1133C57.4492 20.722 58.1602 20.5071 59.0483 20.5071V18.5071ZM55.7468 19.4587C54.804 20.1019 54.1054 21.0157 53.6307 22.1452L55.4744 22.9201C55.8236 22.0894 56.2968 21.5046 56.8739 21.1109L55.7468 19.4587ZM53.6283 22.1509C53.1605 23.2835 52.9453 24.6068 52.9453 26.0909H54.9453C54.9453 24.7909 55.135 23.7421 55.4768 22.9144L53.6283 22.1509ZM52.9453 26.0909C52.9453 27.6275 53.1628 28.9832 53.6413 30.1218L55.4851 29.3469C55.1398 28.5253 54.9453 27.452 54.9453 26.0909H52.9453ZM53.6448 30.1299C54.1272 31.2501 54.8278 32.1519 55.77 32.7741L56.8721 31.1052C56.3085 30.733 55.8373 30.1647 55.4817 29.3388L53.6448 30.1299ZM55.7791 32.78C56.7233 33.3889 57.8161 33.6747 59.0163 33.6747V31.6747C58.1427 31.6747 57.4387 31.4705 56.863 31.0992L55.7791 32.78ZM59.0163 33.6747C59.6836 33.6747 60.3155 33.5893 60.9028 33.4052L60.3046 31.4968C59.9402 31.611 59.5139 31.6747 59.0163 31.6747V33.6747ZM60.8988 33.4065C61.487 33.2248 62.0212 32.9546 62.4886 32.588L61.2543 31.0143C60.9972 31.2159 60.6863 31.3789 60.3086 31.4955L60.8988 33.4065ZM62.4906 32.5864C62.962 32.2147 63.3485 31.7642 63.6462 31.241L61.9078 30.2519C61.7367 30.5526 61.5195 30.8052 61.2523 31.0159L62.4906 32.5864ZM63.6434 31.2457C63.9488 30.7158 64.1522 30.1311 64.2626 29.5026L62.2928 29.1565C62.2185 29.5791 62.0881 29.939 61.9106 30.2472L63.6434 31.2457ZM63.2717 30.3295L68.5984 30.3615L68.6104 28.3615L63.2837 28.3296L63.2717 30.3295ZM67.6089 29.2664C67.5292 30.1002 67.2865 30.9332 66.8684 31.7694L68.6572 32.6638C69.1766 31.6251 69.4949 30.5547 69.5999 29.4567L67.6089 29.2664ZM66.8657 31.7749C66.4593 32.6 65.8959 33.3622 65.1647 34.0613L66.5469 35.5069C67.435 34.6577 68.1429 33.7082 68.6599 32.6584L66.8657 31.7749ZM65.1681 34.0581C64.4629 34.7262 63.5896 35.2716 62.5306 35.6849L63.2577 37.5481C64.5283 37.0522 65.6294 36.3761 66.5436 35.51L65.1681 34.0581ZM62.5287 35.6857C61.5086 36.0862 60.3083 36.2983 58.9098 36.2983V38.2983C60.5085 38.2983 61.9644 38.0559 63.2597 37.5473L62.5287 35.6857ZM58.9098 36.2983C57.0868 36.2983 55.4883 35.8998 54.0894 35.124L53.1194 36.8731C54.8455 37.8303 56.7839 38.2983 58.9098 38.2983V36.2983ZM54.0941 35.1267C52.7142 34.3517 51.6161 33.2229 50.7981 31.7092L49.0386 32.6601C50.0245 34.4845 51.3838 35.8983 53.1147 36.8705L54.0941 35.1267ZM50.7981 31.7092C49.993 30.2196 49.5653 28.3609 49.5653 26.0909H47.5653C47.5653 28.6078 48.0396 30.8117 49.0386 32.6601L50.7981 31.7092ZM49.5653 26.0909C49.5653 23.8155 49.9995 21.9557 50.8162 20.4677L49.063 19.5053C48.0474 21.3554 47.5653 23.5652 47.5653 26.0909H49.5653ZM50.8162 20.4677C51.6478 18.9528 52.7562 17.8266 54.1426 17.0578L53.1727 15.3087C51.4342 16.2728 50.0638 17.6822 49.063 19.5053L50.8162 20.4677ZM54.1426 17.0578C55.5443 16.2805 57.1257 15.8835 58.9098 15.8835V13.8835C56.8161 13.8835 54.8961 14.353 53.1727 15.3087L54.1426 17.0578ZM58.9098 15.8835C60.137 15.8835 61.2518 16.0549 62.262 16.3874L62.8872 14.4876C61.653 14.0814 60.3246 13.8835 58.9098 13.8835V15.8835ZM62.2674 16.3892C63.2776 16.7152 64.1513 17.1894 64.8998 17.8069L66.1726 16.2641C65.2166 15.4754 64.1159 14.8842 62.8818 14.4858L62.2674 16.3892ZM64.9037 17.81C65.6472 18.4172 66.2553 19.166 66.728 20.0675L68.4992 19.1385C67.9067 18.0087 67.1298 17.0458 66.1688 16.261L64.9037 17.81ZM66.728 20.0675C67.1928 20.9536 67.4921 21.9871 67.6092 23.184L69.5997 22.9893C69.4611 21.5726 69.0998 20.2836 68.4992 19.1385L66.728 20.0675Z" fill="black"/>
</g>
<defs>
<filter id="filter0_d_3_86" x="0" y="0" width="94" height="61" filterUnits="userSpaceOnUse" color-interpolation-filters="sRGB">
<feFlood flood-opacity="0" result="BackgroundImageFix"/>
<feColorMatrix in="SourceAlpha" type="matrix" values="0 0 0 0 0 0 0 0 0 0 0 0 0 0 0 0 0 0 127 0" result="hardAlpha"/>
<feOffset dy="4"/>
<feGaussianBlur stdDeviation="2"/>
<feComposite in2="hardAlpha" operator="out"/>
<feColorMatrix type="matrix" values="0 0 0 0 0 0 0 0 0 0 0 0 0 0 0 0 0 0 0.25 0"/>
<feBlend mode="normal" in2="BackgroundImageFix" result="effect1_dropShadow_3_86"/>
<feBlend mode="normal" in="SourceGraphic" in2="effect1_dropShadow_3_86" result="shape"/>
</filter>
<filter id="filter1_d_3_86" x="21.7324" y="14.8835" width="50.872" height="30.4148" filterUnits="userSpaceOnUse" color-interpolation-filters="sRGB">
<feFlood flood-opacity="0" result="BackgroundImageFix"/>
<feColorMatrix in="SourceAlpha" type="matrix" values="0 0 0 0 0 0 0 0 0 0 0 0 0 0 0 0 0 0 127 0" result="hardAlpha"/>
<feOffset dy="4"/>
<feGaussianBlur stdDeviation="2"/>
<feComposite in2="hardAlpha" operator="out"/>
<feColorMatrix type="matrix" values="0 0 0 0 0 0 0 0 0 0 0 0 0 0 0 0 0 0 0.25 0"/>
<feBlend mode="normal" in2="BackgroundImageFix" result="effect1_dropShadow_3_86"/>
<feBlend mode="normal" in="SourceGraphic" in2="effect1_dropShadow_3_86" result="shape"/>
</filter>
</defs>
</svg>
